<?xml version="1.0" encoding="UTF-8" standalone="no"?>
<!-- Created with Inkscape (http://www.inkscape.org/) -->

<svg
   xmlns:dc="http://purl.org/dc/elements/1.1/"
   xmlns:cc="http://creativecommons.org/ns#"
   xmlns:rdf="http://www.w3.org/1999/02/22-rdf-syntax-ns#"
   xmlns:svg="http://www.w3.org/2000/svg"
   xmlns="http://www.w3.org/2000/svg"
   xmlns:sodipodi="http://sodipodi.sourceforge.net/DTD/sodipodi-0.dtd"
   xmlns:inkscape="http://www.inkscape.org/namespaces/inkscape"
   width="325.80203mm"
   height="169.26724mm"
   viewBox="0 0 325.80203 169.26724"
   version="1.1"
   id="svg8"
   inkscape:version="0.92.3 (2405546, 2018-03-11)"
   sodipodi:docname="image.svg">
  <defs
     id="defs2">
    <filter
       id="filter2989"
       inkscape:label="Drop Shadow"
       style="color-interpolation-filters:sRGB">
      <feFlood
         id="feFlood2979"
         result="flood"
         flood-color="rgb(83,57,57)"
         flood-opacity="0.0431373" />
      <feComposite
         id="feComposite2981"
         result="composite1"
         operator="in"
         in2="SourceGraphic"
         in="flood" />
      <feGaussianBlur
         id="feGaussianBlur2983"
         result="blur"
         stdDeviation="2.1"
         in="composite1" />
      <feOffset
         id="feOffset2985"
         result="offset"
         dy="0"
         dx="0" />
      <feComposite
         id="feComposite2987"
         result="composite2"
         operator="over"
         in2="offset"
         in="SourceGraphic" />
    </filter>
    <filter
       id="filter3183"
       inkscape:label="Drop Shadow"
       style="color-interpolation-filters:sRGB">
      <feFlood
         id="feFlood3173"
         result="flood"
         flood-color="rgb(0,0,0)"
         flood-opacity="0.0784314" />
      <feComposite
         id="feComposite3175"
         result="composite1"
         operator="in"
         in2="SourceGraphic"
         in="flood" />
      <feGaussianBlur
         id="feGaussianBlur3177"
         result="blur"
         stdDeviation="1.7"
         in="composite1" />
      <feOffset
         id="feOffset3179"
         result="offset"
         dy="0"
         dx="0" />
      <feComposite
         id="feComposite3181"
         result="fbSourceGraphic"
         operator="over"
         in2="offset"
         in="SourceGraphic" />
      <feColorMatrix
         id="feColorMatrix3185"
         values="0 0 0 -1 0 0 0 0 -1 0 0 0 0 -1 0 0 0 0 1 0"
         in="fbSourceGraphic"
         result="fbSourceGraphicAlpha" />
      <feFlood
         in="fbSourceGraphic"
         result="flood"
         flood-color="rgb(0,0,0)"
         flood-opacity="0.0784314"
         id="feFlood3187" />
      <feComposite
         result="composite1"
         operator="in"
         in="flood"
         id="feComposite3189"
         in2="fbSourceGraphic" />
      <feGaussianBlur
         result="blur"
         stdDeviation="1.7"
         in="composite1"
         id="feGaussianBlur3191" />
      <feOffset
         result="offset"
         dy="0"
         dx="0"
         id="feOffset3193" />
      <feComposite
         result="fbSourceGraphic"
         operator="over"
         in="fbSourceGraphic"
         id="feComposite3195"
         in2="offset" />
      <feColorMatrix
         id="feColorMatrix3197"
         values="0 0 0 -1 0 0 0 0 -1 0 0 0 0 -1 0 0 0 0 1 0"
         in="fbSourceGraphic"
         result="fbSourceGraphicAlpha" />
      <feFlood
         in="fbSourceGraphic"
         result="flood"
         flood-color="rgb(0,0,0)"
         flood-opacity="0.0784314"
         id="feFlood3199" />
      <feComposite
         result="composite1"
         operator="in"
         in="flood"
         id="feComposite3201"
         in2="fbSourceGraphic" />
      <feGaussianBlur
         result="blur"
         stdDeviation="1.7"
         in="composite1"
         id="feGaussianBlur3203" />
      <feOffset
         result="offset"
         dy="0"
         dx="0"
         id="feOffset3205" />
      <feComposite
         result="composite2"
         operator="over"
         in="fbSourceGraphic"
         id="feComposite3207"
         in2="offset" />
    </filter>
  </defs>
  <sodipodi:namedview
     id="base"
     pagecolor="#ffffff"
     bordercolor="#666666"
     borderopacity="1.0"
     inkscape:pageopacity="0.0"
     inkscape:pageshadow="2"
     inkscape:zoom="0.98994949"
     inkscape:cx="527.25267"
     inkscape:cy="372.45948"
     inkscape:document-units="mm"
     inkscape:current-layer="layer1"
     showgrid="false"
     fit-margin-top="0"
     fit-margin-left="0"
     fit-margin-right="0"
     fit-margin-bottom="0"
     inkscape:window-width="1920"
     inkscape:window-height="1137"
     inkscape:window-x="-8"
     inkscape:window-y="-8"
     inkscape:window-maximized="1" />
  <metadata
     id="metadata5">
    <rdf:RDF>
      <cc:Work
         rdf:about="">
        <dc:format>image/svg+xml</dc:format>
        <dc:type
           rdf:resource="http://purl.org/dc/dcmitype/StillImage" />
        <dc:title />
      </cc:Work>
    </rdf:RDF>
  </metadata>
  <g
     inkscape:label="Layer 1"
     inkscape:groupmode="layer"
     id="layer1"
     transform="translate(726.84155,-469.39017)">
    <rect
       id="rect4679"
       width="325.80203"
       height="169.26724"
       x="-729.24701"
       y="469.39017"
       style="fill:#3399ff;fill-opacity:1;stroke-width:0.06553489" />
    <g
       id="g6022"
       transform="matrix(0.26547824,0,0,0.26547824,-110.05418,693.34722)">
      <g
         transform="matrix(2.0362755,0,0,2.0362755,-701.54715,-934.40297)"
         id="g2427">
        <path
           inkscape:connector-curvature="0"
           id="path970"
           style="fill:#f5f5f5;fill-opacity:1;fill-rule:nonzero;stroke:none;stroke-width:0.03527778"
           d="m -393.52442,235.37272 -203.13863,3.5e-4 c -1.98826,0 -3.59975,-1.61184 -3.59975,-3.60011 V 99.866883 c 0,-1.98826 1.61149,-3.599749 3.59975,-3.599749 h 203.13863 c 1.98966,0 3.59833,1.611489 3.59833,3.599749 l 0.004,131.906077 c 0,1.98827 -1.6122,3.59976 -3.60186,3.59976" />
        <path
           inkscape:connector-curvature="0"
           id="path972"
           style="fill:#464648;fill-opacity:1;fill-rule:nonzero;stroke:none;stroke-width:0.03527778"
           d="M -599.67695,231.37998 V 100.26023 c 0,-1.822453 1.47744,-3.299883 3.29989,-3.299883 h 202.56713 c 1.82386,0 3.302,1.47743 3.302,3.299883 v 131.11975 c 0,1.82245 -1.47814,3.29988 -3.302,3.29988 h -202.56713 c -1.82245,0 -3.29989,-1.47743 -3.29989,-3.29988" />
        <path
           inkscape:connector-curvature="0"
           id="path974"
           style="fill:#f5f5f5;fill-opacity:1;fill-rule:nonzero;stroke:none;stroke-width:0.03527778"
           d="m -590.96456,223.715 h 191.74424 V 107.92521 h -191.74424 z" />
        <g
           id="g2358">
          <path
             d="m -356.45806,274.41946 h -277.27136 c -5.47934,0 -8.63635,-1.15923 -7.08166,-2.56117 l 39.0772,-35.24885 c 0.81738,-0.73731 4.61574,-1.3268 8.49489,-1.3268 h 196.29262 c 3.87703,0 7.67645,0.58949 8.49489,1.3268 l 39.0772,35.2485 c 1.55222,1.40229 -1.60514,2.56152 -7.08378,2.56152"
             style="fill:#f5f5f5;fill-opacity:1;fill-rule:nonzero;stroke:none;stroke-width:0.03527778"
             id="path978"
             inkscape:connector-curvature="0" />
          <path
             d="m -348.9827,272.56667 c -0.0176,1.06363 -2.95628,1.85279 -7.47536,1.85279 h -277.27136 c -4.43971,0 -7.354,-0.7613 -7.47359,-1.79599 v 3.13866 l 0.002,1.1998 c 0.0519,1.0541 2.9785,1.83374 7.47183,1.83374 h 277.27136 c 4.50497,0 7.43303,-0.78387 7.47183,-1.84185 l 0.004,-1.1998 v -3.18735"
             style="fill:#e1e0de;fill-opacity:1;fill-rule:nonzero;stroke:none;stroke-width:0.03527778"
             id="path980"
             inkscape:connector-curvature="0" />
          <path
             d="m -356.45806,278.79567 c 0.0106,0 0.0212,0 0.0317,0 -0.0106,0 -0.0212,0 -0.0317,0 m -277.27136,0 c -0.0113,0 -0.0222,0 -0.0335,0 0.0113,0 0.0226,0 0.0335,0 m -0.0399,0 c -0.0102,0 -0.0212,0 -0.0314,0 0.0106,0 0.0208,0 0.0314,0 m 277.35355,0 c 0.007,0 0.0176,0 0.0282,0 -0.0106,0 -0.0212,0 -0.0282,0 m -277.38706,0 c -1.52612,-0.003 -2.8695,-0.096 -3.97793,-0.25965 l 0.002,-0.002 c 1.10914,0.16405 2.44757,0.2593 3.97546,0.26212 m 277.41881,0 c 1.52753,-0.003 2.86456,-0.0981 3.97581,-0.26212 v 0.002 c -1.10772,0.16334 -2.44828,0.25683 -3.97581,0.25965"
             style="fill:#d4d4d2;fill-opacity:1;fill-rule:nonzero;stroke:none;stroke-width:0.03527778"
             id="path984"
             inkscape:connector-curvature="0" />
          <path
             d="m -379.13815,258.02729 h -231.91189 c -1.60302,0 -2.59997,-0.29916 -2.22885,-0.6664 l 19.60175,-19.39572 c 0.25682,-0.254 1.5367,-0.45897 2.85997,-0.45897 h 191.44722 c 1.32291,0 2.6035,0.20461 2.86103,0.45897 l 19.60033,19.39572 c 0.37042,0.36724 -0.62442,0.6664 -2.22956,0.6664"
             style="fill:#e1e0de;fill-opacity:1;fill-rule:nonzero;stroke:none;stroke-width:0.03527778"
             id="path986"
             inkscape:connector-curvature="0" />
          <path
             d="m -460.36876,272.28057 h -69.4496 c -1.79741,0 -3.14608,-0.37606 -3.01308,-0.8375 l 3.0801,-10.69446 c 0.11148,-0.38664 1.52295,-0.69779 3.15349,-0.69779 h 63.00858 c 1.63054,0 3.042,0.31115 3.15313,0.69779 l 3.08045,10.69446 c 0.133,0.46144 -1.21567,0.8375 -3.01307,0.8375"
             style="fill:#e1e0de;fill-opacity:1;fill-rule:nonzero;stroke:none;stroke-width:0.03527778"
             id="path988"
             inkscape:connector-curvature="0" />
          <path
             d="m -586.99094,248.44514 h -11.86674 c -0.73625,0 -1.4792,0.15028 -1.65982,0.33584 l -2.65642,2.7305 c -0.19085,0.19614 0.26987,0.3556 1.02941,0.3556 h 24.48524 c 0.75953,0 1.4912,-0.15946 1.63407,-0.3556 l 1.98931,-2.7305 c 0.13512,-0.18556 -0.35207,-0.33584 -1.08831,-0.33584 h -11.86674"
             style="fill:#464648;fill-opacity:1;fill-rule:nonzero;stroke:none;stroke-width:0.03527778"
             id="path990"
             inkscape:connector-curvature="0" />
          <path
             d="m -560.05953,251.86708 h -10.86732 c -0.75954,0 -1.282,-0.13476 -1.16699,-0.30021 l 1.96603,-2.8381 c 0.10865,-0.15699 0.79304,-0.28363 1.52929,-0.28363 h 10.53359 c 0.73625,0 1.26083,0.12664 1.17158,0.28363 l -1.61961,2.8381 c -0.0945,0.16545 -0.78704,0.30021 -1.54657,0.30021"
             style="fill:#464648;fill-opacity:1;fill-rule:nonzero;stroke:none;stroke-width:0.03527778"
             id="path992"
             inkscape:connector-curvature="0" />
          <path
             d="m -542.45945,251.86708 h -10.86732 c -0.75953,0 -1.30351,-0.13476 -1.21461,-0.30021 l 1.51765,-2.8381 c 0.084,-0.15699 0.74859,-0.28363 1.48484,-0.28363 h 10.53359 c 0.73625,0 1.28058,0.12664 1.21603,0.28363 l -1.17123,2.8381 c -0.0681,0.16545 -0.73942,0.30021 -1.49895,0.30021"
             style="fill:#464648;fill-opacity:1;fill-rule:nonzero;stroke:none;stroke-width:0.03527778"
             id="path994"
             inkscape:connector-curvature="0" />
          <path
             d="m -524.85972,251.86708 h -10.86732 c -0.75953,0 -1.32433,-0.13476 -1.26188,-0.30021 l 1.06962,-2.8381 c 0.0589,-0.15699 0.70379,-0.28363 1.44004,-0.28363 h 10.53359 c 0.73625,0 1.30069,0.12664 1.26083,0.28363 l -0.7232,2.8381 c -0.042,0.16545 -0.69215,0.30021 -1.45168,0.30021"
             style="fill:#464648;fill-opacity:1;fill-rule:nonzero;stroke:none;stroke-width:0.03527778"
             id="path996"
             inkscape:connector-curvature="0" />
          <path
             d="m -489.6599,251.86708 h -10.86732 c -0.75953,0 -1.36702,-0.13476 -1.35679,-0.30021 l 0.17322,-2.8381 c 0.01,-0.15699 0.61418,-0.28363 1.35043,-0.28363 h 10.53359 c 0.73625,0 1.34091,0.12664 1.35044,0.28363 l 0.17321,2.8381 c 0.0102,0.16545 -0.59725,0.30021 -1.35678,0.30021"
             style="fill:#464648;fill-opacity:1;fill-rule:nonzero;stroke:none;stroke-width:0.03527778"
             id="path998"
             inkscape:connector-curvature="0" />
          <path
             d="m -507.25999,251.86708 h -10.86696 c -0.75953,0 -1.34585,-0.13476 -1.30952,-0.30021 l 0.62125,-2.8381 c 0.0346,-0.15699 0.65899,-0.28363 1.39523,-0.28363 h 10.53359 c 0.73625,0 1.32081,0.12664 1.30564,0.28363 l -0.27482,2.8381 c -0.0159,0.16545 -0.64452,0.30021 -1.40441,0.30021"
             style="fill:#464648;fill-opacity:1;fill-rule:nonzero;stroke:none;stroke-width:0.03527778"
             id="path1000"
             inkscape:connector-curvature="0" />
          <path
             d="m -472.06017,251.86708 h -10.86732 c -0.75953,0 -1.38818,-0.13476 -1.40406,-0.30021 l -0.27481,-2.8381 c -0.0152,-0.15699 0.56903,-0.28363 1.30528,-0.28363 h 10.53394 c 0.73625,0 1.36067,0.12664 1.39489,0.28363 l 0.62159,2.8381 c 0.0363,0.16545 -0.54998,0.30021 -1.30951,0.30021"
             style="fill:#464648;fill-opacity:1;fill-rule:nonzero;stroke:none;stroke-width:0.03527778"
             id="path1002"
             inkscape:connector-curvature="0" />
          <path
             d="m -454.46009,251.86708 h -10.86732 c -0.75953,0 -1.4097,-0.13476 -1.45168,-0.30021 l -0.72319,-2.8381 c -0.0399,-0.15699 0.52458,-0.28363 1.26083,-0.28363 h 10.53359 c 0.73625,0 1.38112,0.12664 1.44004,0.28363 l 1.06962,2.8381 c 0.0624,0.16545 -0.50236,0.30021 -1.26189,0.30021"
             style="fill:#464648;fill-opacity:1;fill-rule:nonzero;stroke:none;stroke-width:0.03527778"
             id="path1004"
             inkscape:connector-curvature="0" />
          <path
             d="m -436.86035,251.86708 h -10.86732 c -0.75954,0 -1.43087,-0.13476 -1.49896,-0.30021 l -1.17122,-2.8381 c -0.0649,-0.15699 0.47978,-0.28363 1.21603,-0.28363 h 10.53359 c 0.73624,0 1.40088,0.12664 1.48449,0.28363 l 1.518,2.8381 c 0.0889,0.16545 -0.45508,0.30021 -1.21461,0.30021"
             style="fill:#464648;fill-opacity:1;fill-rule:nonzero;stroke:none;stroke-width:0.03527778"
             id="path1006"
             inkscape:connector-curvature="0" />
          <path
             d="m -419.26062,251.86708 h -10.86697 c -0.75953,0 -1.45203,-0.13476 -1.54658,-0.30021 l -1.6196,-2.8381 c -0.0892,-0.15699 0.43497,-0.28363 1.17122,-0.28363 h 10.53359 c 0.73625,0 1.42099,0.12664 1.52965,0.28363 l 1.96603,2.8381 c 0.115,0.16545 -0.40746,0.30021 -1.16734,0.30021"
             style="fill:#464648;fill-opacity:1;fill-rule:nonzero;stroke:none;stroke-width:0.03527778"
             id="path1008"
             inkscape:connector-curvature="0" />
          <path
             d="m -579.72478,256.62429 h -9.90776 c -0.79199,0 -1.3134,-0.1464 -1.16452,-0.32632 l 2.54493,-3.08151 c 0.14041,-0.17004 0.8756,-0.30763 1.64219,-0.30763 h 9.59097 c 0.76658,0 1.28975,0.13759 1.16804,0.30763 l -2.20627,3.08151 c -0.12876,0.17992 -0.87559,0.32632 -1.66758,0.32632"
             style="fill:#464648;fill-opacity:1;fill-rule:nonzero;stroke:none;stroke-width:0.03527778"
             id="path1010"
             inkscape:connector-curvature="0" />
          <path
             d="m -596.65247,256.62429 h -10.06158 c -0.79198,0 -1.29152,-0.1464 -1.11654,-0.32632 l 2.99791,-3.08151 c 0.16545,-0.17004 0.92075,-0.30763 1.68733,-0.30763 h 9.73985 c 0.76658,0 1.26964,0.13759 1.12324,0.30763 l -2.65536,3.08151 c -0.15487,0.17992 -0.92286,0.32632 -1.71485,0.32632"
             style="fill:#464648;fill-opacity:1;fill-rule:nonzero;stroke:none;stroke-width:0.03527778"
             id="path1012"
             inkscape:connector-curvature="0" />
          <path
             d="m -562.83272,256.62429 h -9.87213 c -0.79199,0 -1.33456,-0.1464 -1.21215,-0.32632 l 2.09621,-3.08151 c 0.11571,-0.17004 0.83079,-0.30763 1.59737,-0.30763 h 9.55675 c 0.76659,0 1.30952,0.13759 1.2125,0.30763 l -1.75824,3.08151 c -0.10266,0.17992 -0.82832,0.32632 -1.62031,0.32632"
             style="fill:#464648;fill-opacity:1;fill-rule:nonzero;stroke:none;stroke-width:0.03527778"
             id="path1014"
             inkscape:connector-curvature="0" />
          <path
             d="m -400.36479,256.62429 h -9.90952 c -0.79023,0 -1.53812,-0.1464 -1.66864,-0.32632 l -2.20839,-3.08151 c -0.12347,-0.17004 0.39864,-0.30763 1.16769,-0.30763 h 9.5885 c 0.76906,0 1.50284,0.13759 1.64395,0.30763 l 2.55058,3.08151 c 0.14817,0.17992 -0.37394,0.32632 -1.16417,0.32632"
             style="fill:#464648;fill-opacity:1;fill-rule:nonzero;stroke:none;stroke-width:0.03527778"
             id="path1016"
             inkscape:connector-curvature="0" />
          <path
             d="m -417.29459,256.62429 h -10.05981 c -0.79199,0 -1.51765,-0.1464 -1.62031,-0.32632 l -0.70979,-1.2439 c -0.10019,-0.17568 0.4505,-0.3175 1.22943,-0.3175 h 9.89789 c 0.77928,0 1.506,0.14182 1.62595,0.3175 l 0.85019,1.2439 c 0.12348,0.17992 -0.4198,0.32632 -1.21355,0.32632"
             style="fill:#464648;fill-opacity:1;fill-rule:nonzero;stroke:none;stroke-width:0.03527778"
             id="path1018"
             inkscape:connector-curvature="0" />
          <path
             d="m -383.47378,256.62429 h -9.87073 c -0.79375,0 -1.5628,-0.1464 -1.71803,-0.32632 l -1.07244,-1.2439 c -0.15169,-0.17568 0.35631,-0.3175 1.13594,-0.3175 h 9.71198 c 0.77964,0 1.54869,0.14182 1.72155,0.3175 l 1.21003,1.2439 c 0.17286,0.17992 -0.32455,0.32632 -1.1183,0.32632"
             style="fill:#464648;fill-opacity:1;fill-rule:nonzero;stroke:none;stroke-width:0.03527778"
             id="path1020"
             inkscape:connector-curvature="0" />
          <path
             d="m -544.48157,256.62429 h -11.33087 c -0.79199,0 -1.35573,-0.1464 -1.25977,-0.32632 l 1.64818,-3.08151 c 0.091,-0.17004 0.78598,-0.30763 1.55292,-0.30763 h 10.96857 c 0.76694,0 1.33138,0.13759 1.26153,0.30763 l -1.27176,3.08151 c -0.0744,0.17992 -0.77682,0.32632 -1.5688,0.32632"
             style="fill:#464648;fill-opacity:1;fill-rule:nonzero;stroke:none;stroke-width:0.03527778"
             id="path1022"
             inkscape:connector-curvature="0" />
          <path
             d="m -434.37468,256.62429 h -11.33087 c -0.79199,0 -1.49437,-0.1464 -1.56881,-0.32632 l -1.27176,-3.08151 c -0.0702,-0.17004 0.4946,-0.30763 1.26153,-0.30763 h 10.96857 c 0.76694,0 1.46191,0.13759 1.55258,0.30763 l 1.64817,3.08151 c 0.0963,0.17992 -0.46743,0.32632 -1.25941,0.32632"
             style="fill:#464648;fill-opacity:1;fill-rule:nonzero;stroke:none;stroke-width:0.03527778"
             id="path1024"
             inkscape:connector-curvature="0" />
          <path
             d="m -403.19759,248.44514 h -11.86392 c -0.7373,0 -1.22414,0.15028 -1.09008,0.33584 l 1.98966,2.7305 c 0.14112,0.19614 0.87489,0.3556 1.63337,0.3556 h 24.4863 c 0.75848,0 1.22061,-0.15946 1.03011,-0.3556 l -2.65641,-2.7305 c -0.18345,-0.18591 -0.92428,-0.33584 -1.66159,-0.33584 h -11.86744"
             style="fill:#464648;fill-opacity:1;fill-rule:nonzero;stroke:none;stroke-width:0.03527778"
             id="path1026"
             inkscape:connector-curvature="0" />
          <path
             d="m -587.20014,244.32187 h -7.69691 c -0.70838,0 -1.41746,0.13899 -1.58468,0.3108 l -2.45462,2.52306 c -0.17604,0.18098 0.27234,0.32809 1.00224,0.32809 h 15.86265 c 0.72955,0 1.43898,-0.14711 1.58362,-0.32809 l 2.0186,-2.52306 c 0.13758,-0.17181 -0.32562,-0.3108 -1.03364,-0.3108 h -7.69726"
             style="fill:#464648;fill-opacity:1;fill-rule:nonzero;stroke:none;stroke-width:0.03527778"
             id="path1028"
             inkscape:connector-curvature="0" />
          <path
             d="m -548.25629,247.48382 h -10.43976 c -0.72954,0 -1.24566,-0.12418 -1.15323,-0.27693 l 1.59032,-2.62255 c 0.0879,-0.145 0.73308,-0.26247 1.4411,-0.26247 h 10.13178 c 0.70802,0 1.2252,0.11747 1.15499,0.26247 l -1.26964,2.62255 c -0.0741,0.15275 -0.72567,0.27693 -1.45556,0.27693"
             style="fill:#464648;fill-opacity:1;fill-rule:nonzero;stroke:none;stroke-width:0.03527778"
             id="path1030"
             inkscape:connector-curvature="0" />
          <path
             d="m -565.16388,247.48382 h -10.43975 c -0.7299,0 -1.22626,-0.12418 -1.10949,-0.27693 l 2.00449,-2.62255 c 0.11077,-0.145 0.77434,-0.26247 1.48237,-0.26247 h 10.13178 c 0.70802,0 1.20685,0.11747 1.11372,0.26247 l -1.68381,2.62255 c -0.0984,0.15275 -0.76941,0.27693 -1.49931,0.27693"
             style="fill:#464648;fill-opacity:1;fill-rule:nonzero;stroke:none;stroke-width:0.03527778"
             id="path1032"
             inkscape:connector-curvature="0" />
          <path
             d="m -531.34836,247.48382 h -10.43975 c -0.7299,0 -1.26577,-0.12418 -1.19698,-0.27693 l 1.17581,-2.62255 c 0.0653,-0.145 0.6918,-0.26247 1.40017,-0.26247 h 10.13143 c 0.70803,0 1.24389,0.11747 1.19662,0.26247 l -0.85584,2.62255 c -0.0497,0.15275 -0.68192,0.27693 -1.41146,0.27693"
             style="fill:#464648;fill-opacity:1;fill-rule:nonzero;stroke:none;stroke-width:0.03527778"
             id="path1034"
             inkscape:connector-curvature="0" />
          <path
             d="m -514.44078,247.48382 h -10.43975 c -0.7299,0 -1.28517,-0.12418 -1.24072,-0.27693 l 0.762,-2.62255 c 0.042,-0.145 0.65017,-0.26247 1.35819,-0.26247 h 10.13178 c 0.70803,0 1.26224,0.11747 1.2379,0.26247 l -0.44133,2.62255 c -0.0258,0.15275 -0.63817,0.27693 -1.36807,0.27693"
             style="fill:#464648;fill-opacity:1;fill-rule:nonzero;stroke:none;stroke-width:0.03527778"
             id="path1036"
             inkscape:connector-curvature="0" />
          <path
             d="m -480.62526,247.48382 h -10.44011 c -0.72954,0 -1.32433,-0.12418 -1.32785,-0.27693 l -0.0667,-2.62255 c -0.004,-0.145 0.56762,-0.26247 1.27564,-0.26247 h 10.13178 c 0.70803,0 1.29928,0.11747 1.3208,0.26247 l 0.38665,2.62255 c 0.0226,0.15275 -0.55069,0.27693 -1.28023,0.27693"
             style="fill:#464648;fill-opacity:1;fill-rule:nonzero;stroke:none;stroke-width:0.03527778"
             id="path1038"
             inkscape:connector-curvature="0" />
          <path
             d="m -497.53284,247.48382 h -10.44011 c -0.72955,0 -1.30457,-0.12418 -1.28446,-0.27693 l 0.34783,-2.62255 c 0.0194,-0.145 0.6089,-0.26247 1.31692,-0.26247 h 10.13178 c 0.70803,0 1.28094,0.11747 1.27953,0.26247 l -0.0275,2.62255 c -0.002,0.15275 -0.59443,0.27693 -1.32397,0.27693"
             style="fill:#464648;fill-opacity:1;fill-rule:nonzero;stroke:none;stroke-width:0.03527778"
             id="path1040"
             inkscape:connector-curvature="0" />
          <path
             d="m -463.71768,247.48382 h -10.43975 c -0.72955,0 -1.34409,-0.12418 -1.37196,-0.27693 l -0.48048,-2.62255 c -0.0265,-0.145 0.52599,-0.26247 1.23402,-0.26247 h 10.13177 c 0.70803,0 1.31798,0.11747 1.36208,0.26247 l 0.8008,2.62255 c 0.0469,0.15275 -0.50658,0.27693 -1.23648,0.27693"
             style="fill:#464648;fill-opacity:1;fill-rule:nonzero;stroke:none;stroke-width:0.03527778"
             id="path1042"
             inkscape:connector-curvature="0" />
          <path
             d="m -446.80975,247.48382 h -10.4401 c -0.72955,0 -1.36349,-0.12418 -1.4157,-0.27693 l -0.89464,-2.62255 c -0.0494,-0.145 0.48471,-0.26247 1.19274,-0.26247 h 10.13178 c 0.70802,0 1.33632,0.11747 1.4037,0.26247 l 1.21496,2.62255 c 0.0706,0.15275 -0.46319,0.27693 -1.19274,0.27693"
             style="fill:#464648;fill-opacity:1;fill-rule:nonzero;stroke:none;stroke-width:0.03527778"
             id="path1044"
             inkscape:connector-curvature="0" />
          <path
             d="m -429.90217,247.48382 h -10.4401 c -0.72955,0 -1.38289,-0.12418 -1.45944,-0.27693 l -1.30846,-2.62255 c -0.0723,-0.145 0.44309,-0.26247 1.15112,-0.26247 h 10.13142 c 0.70838,0 1.35538,0.11747 1.44533,0.26247 l 1.62913,2.62255 c 0.0949,0.15275 -0.41945,0.27693 -1.149,0.27693"
             style="fill:#464648;fill-opacity:1;fill-rule:nonzero;stroke:none;stroke-width:0.03527778"
             id="path1046"
             inkscape:connector-curvature="0" />
          <path
             d="m -412.99423,247.48382 h -10.44011 c -0.72989,0 -1.40299,-0.12418 -1.50318,-0.27693 l -1.72297,-2.62255 c -0.0953,-0.145 0.40181,-0.26247 1.10984,-0.26247 h 10.13284 c 0.70555,0 1.3723,0.11747 1.48519,0.26247 l 2.04258,2.62255 c 0.11995,0.15275 -0.37394,0.27693 -1.10419,0.27693"
             style="fill:#464648;fill-opacity:1;fill-rule:nonzero;stroke:none;stroke-width:0.03527778"
             id="path1048"
             inkscape:connector-curvature="0" />
          <path
             d="m -566.06663,239.67649 h -9.24878 c -0.67663,0 -1.13736,-0.10689 -1.02941,-0.23812 l 0.74648,-0.90982 c 0.10548,-0.12876 0.73166,-0.23283 1.39877,-0.23283 h 9.12036 c 0.66675,0 1.13453,0.10407 1.04422,0.23283 l -0.63923,0.90982 c -0.0924,0.13123 -0.71579,0.23812 -1.39241,0.23812"
             style="fill:#464648;fill-opacity:1;fill-rule:nonzero;stroke:none;stroke-width:0.03527778"
             id="path1050"
             inkscape:connector-curvature="0" />
          <path
             d="m -581.18599,239.67649 h -9.24912 c -0.67628,0 -1.12078,-0.10689 -0.99307,-0.23812 l 0.88512,-0.90982 c 0.12523,-0.12876 0.76729,-0.23283 1.43404,-0.23283 h 9.12036 c 0.6671,0 1.11901,0.10407 1.00895,0.23283 l -0.77788,0.90982 c -0.11218,0.13123 -0.75212,0.23812 -1.4284,0.23812"
             style="fill:#464648;fill-opacity:1;fill-rule:nonzero;stroke:none;stroke-width:0.03527778"
             id="path1052"
             inkscape:connector-curvature="0" />
          <path
             d="m -550.94693,239.67649 h -9.24913 c -0.67627,0 -1.15358,-0.10689 -1.06574,-0.23812 l 0.60819,-0.90982 c 0.0857,-0.12876 0.69603,-0.23283 1.36313,-0.23283 h 9.12037 c 0.6671,0 1.1504,0.10407 1.0795,0.23283 l -0.5006,0.90982 c -0.0723,0.13123 -0.67945,0.23812 -1.35572,0.23812"
             style="fill:#464648;fill-opacity:1;fill-rule:nonzero;stroke:none;stroke-width:0.03527778"
             id="path1054"
             inkscape:connector-curvature="0" />
          <path
             d="m -535.82758,239.67649 h -9.24878 c -0.67662,0 -1.16981,-0.10689 -1.10207,-0.23812 l 0.46919,-0.90982 c 0.0663,-0.12876 0.66075,-0.23283 1.32786,-0.23283 h 9.12036 c 0.6671,0 1.16628,0.10407 1.11513,0.23283 l -0.36195,0.90982 c -0.0526,0.13123 -0.64311,0.23812 -1.31974,0.23812"
             style="fill:#464648;fill-opacity:1;fill-rule:nonzero;stroke:none;stroke-width:0.03527778"
             id="path1056"
             inkscape:connector-curvature="0" />
          <path
             d="m -505.58853,239.67649 h -9.24912 c -0.67628,0 -1.20227,-0.10689 -1.1744,-0.23812 l 0.19226,-0.90982 c 0.0272,-0.12876 0.58985,-0.23283 1.25695,-0.23283 h 9.12036 c 0.66675,0 1.19804,0.10407 1.18604,0.23283 l -0.085,0.90982 c -0.0123,0.13123 -0.57079,0.23812 -1.24707,0.23812"
             style="fill:#464648;fill-opacity:1;fill-rule:nonzero;stroke:none;stroke-width:0.03527778"
             id="path1058"
             inkscape:connector-curvature="0" />
          <path
             d="m -520.70823,239.67649 h -9.24877 c -0.67663,0 -1.18604,-0.10689 -1.13842,-0.23812 l 0.33091,-0.90982 c 0.0469,-0.12876 0.62547,-0.23283 1.29257,-0.23283 h 9.12002 c 0.6671,0 1.18215,0.10407 1.15076,0.23283 l -0.22366,0.90982 c -0.0321,0.13123 -0.60678,0.23812 -1.28341,0.23812"
             style="fill:#464648;fill-opacity:1;fill-rule:nonzero;stroke:none;stroke-width:0.03527778"
             id="path1060"
             inkscape:connector-curvature="0" />
          <path
             d="m -490.46917,239.67649 h -9.24878 c -0.67663,0 -1.21849,-0.10689 -1.21109,-0.23812 l 0.0536,-0.90982 c 0.008,-0.12876 0.55456,-0.23283 1.22167,-0.23283 h 9.12036 c 0.6671,0 1.21391,0.10407 1.22132,0.23283 l 0.0536,0.90982 c 0.008,0.13123 -0.53411,0.23812 -1.21073,0.23812"
             style="fill:#464648;fill-opacity:1;fill-rule:nonzero;stroke:none;stroke-width:0.03527778"
             id="path1062"
             inkscape:connector-curvature="0" />
          <path
             d="m -475.34947,239.67649 h -9.24913 c -0.67627,0 -1.23472,-0.10689 -1.24707,-0.23812 l -0.085,-0.90982 c -0.012,-0.12876 0.51894,-0.23283 1.18604,-0.23283 h 9.12037 c 0.6671,0 1.22978,0.10407 1.25694,0.23283 l 0.19227,0.90982 c 0.0279,0.13123 -0.49813,0.23812 -1.1744,0.23812"
             style="fill:#464648;fill-opacity:1;fill-rule:nonzero;stroke:none;stroke-width:0.03527778"
             id="path1064"
             inkscape:connector-curvature="0" />
          <path
             d="m -460.23012,239.67649 h -9.24913 c -0.67627,0 -1.25095,-0.10689 -1.2834,-0.23812 l -0.22331,-0.90982 c -0.0318,-0.12876 0.48366,-0.23283 1.15076,-0.23283 h 9.12001 c 0.6671,0 1.24566,0.10407 1.29258,0.23283 l 0.33055,0.90982 c 0.048,0.13123 -0.46178,0.23812 -1.13806,0.23812"
             style="fill:#464648;fill-opacity:1;fill-rule:nonzero;stroke:none;stroke-width:0.03527778"
             id="path1066"
             inkscape:connector-curvature="0" />
          <path
             d="m -445.11077,239.67649 h -9.24877 c -0.67663,0 -1.26754,-0.10689 -1.31975,-0.23812 l -0.36195,-0.90982 c -0.0512,-0.12876 0.44803,-0.23283 1.11513,-0.23283 h 9.12037 c 0.66675,0 1.26118,0.10407 1.32785,0.23283 l 0.4692,0.90982 c 0.0677,0.13123 -0.42545,0.23812 -1.10208,0.23812"
             style="fill:#464648;fill-opacity:1;fill-rule:nonzero;stroke:none;stroke-width:0.03527778"
             id="path1068"
             inkscape:connector-curvature="0" />
          <path
             d="m -429.99107,239.67649 h -9.24912 c -0.67628,0 -1.28341,-0.10689 -1.35573,-0.23812 l -0.50094,-0.90982 c -0.0706,-0.12876 0.41275,-0.23283 1.07985,-0.23283 h 9.12036 c 0.66711,0 1.27741,0.10407 1.36314,0.23283 l 0.60783,0.90982 c 0.0879,0.13123 -0.38911,0.23812 -1.06539,0.23812"
             style="fill:#464648;fill-opacity:1;fill-rule:nonzero;stroke:none;stroke-width:0.03527778"
             id="path1070"
             inkscape:connector-curvature="0" />
          <path
             d="m -414.87101,239.67649 h -9.24948 c -0.67663,0 -1.29999,-0.10689 -1.39241,-0.23812 l -0.63924,-0.90982 c -0.0903,-0.12876 0.37712,-0.23283 1.04423,-0.23283 h 9.1186 c 0.67027,0 1.29469,0.10407 1.40052,0.23283 l 0.74789,0.90982 c 0.10584,0.13123 -0.35278,0.23812 -1.03011,0.23812"
             style="fill:#464648;fill-opacity:1;fill-rule:nonzero;stroke:none;stroke-width:0.03527778"
             id="path1072"
             inkscape:connector-curvature="0" />
          <path
             d="m -399.75095,239.67649 h -9.24984 c -0.67733,0 -1.31586,-0.10689 -1.42875,-0.23812 l -0.77964,-0.90982 c -0.10936,-0.12876 0.3422,-0.23283 1.00895,-0.23283 h 9.12283 c 0.66675,0 1.30881,0.10407 1.43228,0.23283 l 0.88547,0.90982 c 0.127,0.13123 -0.3175,0.23812 -0.9913,0.23812"
             style="fill:#464648;fill-opacity:1;fill-rule:nonzero;stroke:none;stroke-width:0.03527778"
             id="path1074"
             inkscape:connector-curvature="0" />
          <path
             d="m -402.21687,244.32187 h -6.92503 c -0.70908,0 -1.16769,0.13899 -1.03011,0.3108 l 2.0567,2.52306 c 0.14816,0.18098 0.85725,0.32809 1.5875,0.32809 h 14.27339 c 0.73025,0 1.17827,-0.14711 1.00188,-0.32809 l -2.4518,-2.52306 c -0.16933,-0.17181 -0.87842,-0.3108 -1.58397,-0.3108 h -6.92856"
             style="fill:#464648;fill-opacity:1;fill-rule:nonzero;stroke:none;stroke-width:0.03527778"
             id="path1076"
             inkscape:connector-curvature="0" />
          <path
             d="m -583.81383,240.50199 h -7.41433 c -0.68192,0 -1.36031,0.12912 -1.51553,0.28857 l -2.27471,2.33821 c -0.16299,0.16757 0.27375,0.30375 0.97578,0.30375 h 11.4487 c 0.70203,0 1.38536,-0.13618 1.52541,-0.30375 l 1.95721,-2.33821 c 0.1337,-0.15945 -0.3115,-0.28857 -0.99342,-0.28857 h -3.70911"
             style="fill:#464648;fill-opacity:1;fill-rule:nonzero;stroke:none;stroke-width:0.03527778"
             id="path1078"
             inkscape:connector-curvature="0" />
          <path
             d="m -550.05793,243.43252 h -10.045 c -0.70202,0 -1.19697,-0.11501 -1.10595,-0.25683 l 1.56386,-2.43028 c 0.0864,-0.13441 0.70944,-0.24342 1.39136,-0.24342 h 9.75924 c 0.68192,0 1.17828,0.10901 1.10808,0.24342 l -1.26683,2.43028 c -0.0737,0.14182 -0.70273,0.25683 -1.40476,0.25683"
             style="fill:#464648;fill-opacity:1;fill-rule:nonzero;stroke:none;stroke-width:0.03527778"
             id="path1080"
             inkscape:connector-curvature="0" />
          <path
             d="m -566.32593,243.43252 h -10.04464 c -0.70203,0 -1.17934,-0.11501 -1.06574,-0.25683 l 1.94769,-2.43028 c 0.10759,-0.13441 0.74788,-0.24342 1.4298,-0.24342 h 9.75925 c 0.68192,0 1.16099,0.10901 1.06962,0.24342 l -1.65065,2.43028 c -0.096,0.14182 -0.7433,0.25683 -1.44533,0.25683"
             style="fill:#464648;fill-opacity:1;fill-rule:nonzero;stroke:none;stroke-width:0.03527778"
             id="path1082"
             inkscape:connector-curvature="0" />
          <path
             d="m -533.78994,243.43252 h -10.04499 c -0.70203,0 -1.21532,-0.11501 -1.14653,-0.25683 l 1.17969,-2.43028 c 0.0653,-0.13441 0.67134,-0.24342 1.35326,-0.24342 h 9.75924 c 0.68192,0 1.19557,0.10901 1.14653,0.24342 l -0.883,2.43028 c -0.0515,0.14182 -0.66217,0.25683 -1.3642,0.25683"
             style="fill:#464648;fill-opacity:1;fill-rule:nonzero;stroke:none;stroke-width:0.03527778"
             id="path1084"
             inkscape:connector-curvature="0" />
          <path
             d="m -517.52229,243.43252 h -10.04465 c -0.70202,0 -1.23366,-0.11501 -1.18709,-0.25683 l 0.79586,-2.43028 c 0.0441,-0.13441 0.63289,-0.24342 1.31481,-0.24342 h 9.75924 c 0.68192,0 1.2125,0.10901 1.18498,0.24342 l -0.49918,2.43028 c -0.0289,0.14182 -0.62195,0.25683 -1.32397,0.25683"
             style="fill:#464648;fill-opacity:1;fill-rule:nonzero;stroke:none;stroke-width:0.03527778"
             id="path1086"
             inkscape:connector-curvature="0" />
          <path
             d="m -484.9863,243.43252 h -10.045 c -0.70202,0 -1.26964,-0.11501 -1.26823,-0.25683 l 0.0286,-2.43028 c 0.002,-0.13476 0.55598,-0.24342 1.2379,-0.24342 h 9.75924 c 0.68192,0 1.24707,0.10866 1.26189,0.24342 l 0.26846,2.43028 c 0.0155,0.14182 -0.5408,0.25683 -1.24283,0.25683"
             style="fill:#464648;fill-opacity:1;fill-rule:nonzero;stroke:none;stroke-width:0.03527778"
             id="path1088"
             inkscape:connector-curvature="0" />
          <path
             d="m -501.2543,243.43252 h -10.04499 c -0.70203,0 -1.25166,-0.11501 -1.22767,-0.25683 l 0.4124,-2.43028 c 0.0229,-0.13441 0.59443,-0.24342 1.27635,-0.24342 h 9.75924 c 0.68192,0 1.22979,0.10866 1.22344,0.24342 l -0.11536,2.43028 c -0.007,0.14182 -0.58138,0.25683 -1.28341,0.25683"
             style="fill:#464648;fill-opacity:1;fill-rule:nonzero;stroke:none;stroke-width:0.03527778"
             id="path1090"
             inkscape:connector-curvature="0" />
          <path
             d="m -468.71831,243.43252 h -10.04499 c -0.70203,0 -1.28799,-0.11501 -1.30881,-0.25683 l -0.35524,-2.43028 c -0.0198,-0.13476 0.51752,-0.24342 1.19944,-0.24342 h 9.75925 c 0.68191,0 1.264,0.10866 1.30033,0.24342 l 0.65229,2.43028 c 0.0377,0.14182 -0.50024,0.25683 -1.20227,0.25683"
             style="fill:#464648;fill-opacity:1;fill-rule:nonzero;stroke:none;stroke-width:0.03527778"
             id="path1092"
             inkscape:connector-curvature="0" />
          <path
             d="m -452.45066,243.43252 h -10.04465 c -0.70202,0 -1.30633,-0.11501 -1.34937,-0.25683 l -0.73907,-2.43028 c -0.0409,-0.13476 0.47907,-0.24342 1.16099,-0.24342 h 9.75925 c 0.68192,0 1.28129,0.10866 1.33879,0.24342 l 1.03611,2.43028 c 0.0603,0.14182 -0.46003,0.25683 -1.16205,0.25683"
             style="fill:#464648;fill-opacity:1;fill-rule:nonzero;stroke:none;stroke-width:0.03527778"
             id="path1094"
             inkscape:connector-curvature="0" />
          <path
             d="m -436.18267,243.43252 h -10.04499 c -0.70203,0 -1.32433,-0.11501 -1.3896,-0.25683 l -1.12289,-2.43028 c -0.0621,-0.13476 0.44062,-0.24342 1.12254,-0.24342 h 9.75925 c 0.68192,0 1.29857,0.10866 1.37724,0.24342 l 1.41958,2.43028 c 0.0829,0.14182 -0.4191,0.25683 -1.12113,0.25683"
             style="fill:#464648;fill-opacity:1;fill-rule:nonzero;stroke:none;stroke-width:0.03527778"
             id="path1096"
             inkscape:connector-curvature="0" />
          <path
             d="m -419.91467,243.43252 h -10.045 c -0.70203,0 -1.34232,-0.11501 -1.43016,-0.25683 l -1.50671,-2.43028 c -0.0836,-0.13476 0.40216,-0.24342 1.08408,-0.24342 h 9.75925 c 0.68192,0 1.31586,0.10866 1.4157,0.24342 l 1.8034,2.43028 c 0.10512,0.14182 -0.37854,0.25683 -1.08056,0.25683"
             style="fill:#464648;fill-opacity:1;fill-rule:nonzero;stroke:none;stroke-width:0.03527778"
             id="path1098"
             inkscape:connector-curvature="0" />
          <path
             d="m -409.33593,240.50199 h -6.67102 c -0.68086,0 -1.13595,0.12912 -1.01248,0.28822 l 1.82034,2.33856 c 0.13053,0.16757 0.80433,0.30375 1.50636,0.30375 h 17.54717 c 0.70202,0 1.13947,-0.13618 0.97719,-0.30375 l -2.27542,-2.33856 c -0.15522,-0.1591 -0.83255,-0.28822 -1.51694,-0.28822 h -10.3752"
             style="fill:#464648;fill-opacity:1;fill-rule:nonzero;stroke:none;stroke-width:0.03527778"
             id="path1100"
             inkscape:connector-curvature="0" />
          <path
             d="m -452.72583,256.62429 h -84.73546 c -0.79199,0 -1.37901,-0.1464 -1.31128,-0.32632 l 1.1617,-3.08151 c 0.0642,-0.17004 0.7373,-0.30763 1.50389,-0.30763 h 82.02684 c 0.76658,0 1.43968,0.13759 1.50389,0.30763 l 1.16134,3.08151 c 0.0681,0.17992 -0.51893,0.32632 -1.31092,0.32632"
             style="fill:#464648;fill-opacity:1;fill-rule:nonzero;stroke:none;stroke-width:0.03527778"
             id="path1102"
             inkscape:connector-curvature="0" />
        </g>
        <path
           inkscape:connector-curvature="0"
           id="path1338"
           style="fill:#444446;fill-opacity:1;fill-rule:nonzero;stroke:none;stroke-width:0.03527778"
           d="m -573.74943,225.31879 v 0 l 78.65569,-3.6e-4 h 95.87195 V 109.52865 225.31843 l -174.52764,3.6e-4" />
      </g>
      <g
         transform="matrix(2.0910088,0,0,2.0910088,-1377.5266,-590.0701)"
         id="g2433" />
      <rect
         transform="matrix(1.2669007,0,0,1.2669007,-206.41054,-738.27976)"
         style="opacity:1;fill:#ffffff;fill-opacity:0.99607843;stroke:none;stroke-width:0.40614885;stroke-linecap:round;stroke-miterlimit:4;stroke-dasharray:none;stroke-dashoffset:0;stroke-opacity:1;filter:url(#filter3183)"
         id="use2991"
         width="94.872017"
         height="94.872017"
         x="-1322.071"
         y="34.553604"
         ry="2.5520027" />
      <g
         transform="matrix(0.29767223,0,0,-0.29767223,-1939.72,-544.95657)"
         inkscape:label="pagekit-icon"
         id="g2997">
        <g
           transform="translate(300,423)"
           id="g2995">
          <path
             inkscape:connector-curvature="0"
             id="path2993"
             style="fill:#191a1b;fill-opacity:1;fill-rule:nonzero;stroke:none"
             d="m 0,0 v -245 h 98 v 36 H 36 V -36 H 160 V -173 H 98 v -36 h 98 V 0 Z" />
        </g>
      </g>
      <rect
         transform="matrix(1.2669007,0,0,1.2669007,-365.06761,-797.70344)"
         ry="2.5520027"
         y="81.058502"
         x="-1021.1255"
         height="94.872017"
         width="94.872017"
         id="rect3211"
         style="opacity:1;fill:#ffffff;fill-opacity:0.99607843;stroke:none;stroke-width:0.40614885;stroke-linecap:round;stroke-miterlimit:4;stroke-dasharray:none;stroke-dashoffset:0;stroke-opacity:1;filter:url(#filter3183)" />
      <g
         style="fill:#28a5f5;fill-opacity:1"
         transform="matrix(2.2646875,0,0,2.2646875,-1630.2467,-677.74313)"
         id="g3233">
        <polygon
           style="fill:#28a5f5;fill-opacity:1"
           points="13.75,1 8.17,4.45 13.6,7.44 19.1,4.1 "
           id="polygon3219" />
        <path
           style="fill:#28a5f5;fill-opacity:1"
           inkscape:connector-curvature="0"
           d="m 21.67,5.43 -5.53,3.34 6.26,3.63 v 9.52 L 13.96,26.68 5.6,21.93 V 14.55 L 0,11.7 V 25.21 L 13.75,33.29 28,25.21 V 9.07 Z"
           id="path3221" />
      </g>
    </g>
    <text
       xml:space="preserve"
       style="font-style:normal;font-weight:normal;font-size:5.27798414px;line-height:1.25;font-family:sans-serif;letter-spacing:0px;word-spacing:0px;fill:#356d00;fill-opacity:1;stroke:none;stroke-width:0.13194962"
       x="-638.7785"
       y="613.61597"
       id="text6026"><tspan
         sodipodi:role="line"
         id="tspan6024"
         x="-638.7785"
         y="613.61597"
         style="font-style:normal;font-variant:normal;font-weight:normal;font-stretch:normal;font-size:17.59328079px;font-family:Ubuntu;-inkscape-font-specification:Ubuntu;fill:#000000;fill-opacity:1;stroke-width:0.13194962">UI3Kitify Theme</tspan></text>
  </g>
</svg>
