<?xml version="1.0" encoding="utf-8"?>
<svg version="1.1"
	 id="svg8" inkscape:version="0.92.3 (unknown)" sodipodi:docname="newdate.svg" xmlns:cc="http://creativecommons.org/ns#" xmlns:dc="http://purl.org/dc/elements/1.1/" xmlns:inkscape="http://www.inkscape.org/namespaces/inkscape" xmlns:rdf="http://www.w3.org/1999/02/22-rdf-syntax-ns#" xmlns:sodipodi="http://sodipodi.sourceforge.net/DTD/sodipodi-0.dtd" xmlns:svg="http://www.w3.org/2000/svg"
	 xmlns="http://www.w3.org/2000/svg" xmlns:xlink="http://www.w3.org/1999/xlink" x="0px" y="0px" viewBox="0 0 6708.7 2434.4"
	 style="enable-background:new 0 0 6708.7 2434.4;" xml:space="preserve">
<style type="text/css">
	.st0{fill:#9D6E48;}
	.st1{fill:#8D5F3D;}
	.st2{fill:#FFD7A3;}
	.st3{fill:#FDC88E;}
	.st4{fill:#FFE1B2;}
	.st5{fill:#623F33;}
	.st6{fill:#E4B07B;}
	.st7{fill:#8DB9E2;}
	.st8{fill:#6AA2DE;}
	.st9{fill:#FFC84A;}
	.st10{fill:#734A3E;}
	.st11{fill:#A2795C;}
	.st12{fill:#8F6951;}
	.st13{fill:#C93F44;}
	.st14{fill:#F23F44;}
	.st15{fill:#AD8366;}
	.st16{fill:#FF4F4F;}
	.st17{fill:#E69F5F;}
	.st18{fill:#E09156;}
	.st19{fill:#FF6473;}
	.st20{fill:#5E342E;}
	.st21{fill:#F6B47B;}
	.st22{fill:#E2A071;}
	.st23{fill:#FFDC46;}
	.st24{fill:#6E4439;}
	.st25{fill:#FFB04D;}
	.st26{fill:#FFFFFF;}
	.st27{fill:#4F6E7F;}
	.st28{fill:#33546A;}
	.st29{fill:none;stroke:#1D2813;stroke-width:1.3229;stroke-opacity:0.9417;stroke-dasharray:1.3229,10.5833;}
	.st30{fill:#28A5F5;}
</style>
<sodipodi:namedview  bordercolor="#666666" borderopacity="1.0" fit-margin-bottom="0" fit-margin-left="0" fit-margin-right="0" fit-margin-top="0" id="base" inkscape:current-layer="layer1" inkscape:cx="443.85743" inkscape:cy="5092.6259" inkscape:document-units="mm" inkscape:guide-bbox="true" inkscape:pageopacity="0" inkscape:pageshadow="2" inkscape:window-height="1026" inkscape:window-maximized="1" inkscape:window-width="1615" inkscape:window-x="65" inkscape:window-y="24" inkscape:zoom="0.04375" pagecolor="white" showgrid="false" showguides="true" units="px">
	<sodipodi:guide  id="guide4536" inkscape:locked="false" orientation="1,0" position="2628.6031,165.36949"></sodipodi:guide>
</sodipodi:namedview>
<g id="layer1" transform="translate(3750.0521,-14.39684)" inkscape:groupmode="layer" inkscape:label="Layer 1">
	<g id="g3681" transform="matrix(0.26458333,0,0,0.26458333,-2453.6826,533.07443)">
		<g id="g3608">
			<path id="path3572" inkscape:connector-curvature="0" class="st0" d="M14495.6,5448.9c-186.9,0-604.7,99.2-604.7,635
				c0,127.2,26.8,275.4,90.7,453.5c340.1,60,688,60,1028,0c63.9-178.1,90.7-326.3,90.7-453.5
				C15100.3,5548,14682.5,5448.9,14495.6,5448.9z"/>
			<path id="path3574" inkscape:connector-curvature="0" class="st1" d="M13890.9,6083.8c0,127.2,26.8,275.4,90.7,453.5
				c151.6,26.7,304.7,40.9,458,43.8c0,0-240-571.7-110.5-1110.1C14131.4,5522.3,13890.9,5677.3,13890.9,6083.8z"/>
			<path id="path3576" inkscape:connector-curvature="0" class="st2" d="M15056.4,7099.9l-36.2-271.4
				c-6.6-49.7-37.4-92.8-82.2-115.2l-65.1-32.6c-9.7-4.9-20.8-0.5-25.6,8.7l-128.9-47.4c-24.7-8.2-41.3-31.3-41.3-57.4V6487
				l130.2-54.3c67.6-28.2,111.6-94.2,111.6-167.5l0,0c50.1,0,90.7-40.6,90.7-90.7s-40.6-90.7-90.7-90.7v-90.7
				c0-83.5-67.7-151.2-151.2-151.2h-544.3c-83.5,0-151.2,67.7-151.2,151.2v90.7c-50.1,0-90.7,40.6-90.7,90.7s40.6,90.7,90.7,90.7
				l0,0c0,73.2,44,139.3,111.6,167.5l130.3,54.3v97.5c0,26-16.7,49.1-41.3,57.4l-128.9,47.4c-4.7-9.2-15.8-13.5-25.5-8.7l-59.4,29.7
				c-50.7,25.3-81.5,68.5-88.1,118.2l-1.5,11v0l-34.7,260.4c-7.2,54.4,35.1,102.7,89.9,102.7h941.8
				C15021.4,7202.6,15063.7,7154.3,15056.4,7099.9L15056.4,7099.9z"/>
			<path id="path3578" inkscape:connector-curvature="0" class="st3" d="M14314.2,6484.5v100c0,21.5-11.4,41-29.3,51.8
				c241,41.6,378.7-135.3,391.2-151.8L14314.2,6484.5L14314.2,6484.5z"/>
			<path id="path3580" inkscape:connector-curvature="0" class="st4" d="M14918.9,6083.8v-90.7c0-83.5-67.7-151.2-151.2-151.2
				h-544.3c-83.5,0-151.2,67.7-151.2,151.2v90.7c-50.1,0-90.7,40.6-90.7,90.7c0,50.1,40.6,90.7,90.7,90.7l0,0
				c0,73.2,44,139.3,111.6,167.5l195.4,81.4c36.9,15.4,76.4,23.3,116.3,23.3l0,0c39.9,0,79.4-7.9,116.3-23.3l195.4-81.4
				c67.6-28.2,111.6-94.2,111.6-167.5l0,0c50.1,0,90.7-40.6,90.7-90.7S14969,6083.8,14918.9,6083.8L14918.9,6083.8z"/>
			<path id="path3582" inkscape:connector-curvature="0" class="st5" d="M14284,6174.5L14284,6174.5c-16.6,0-30.2-13.6-30.2-30.2
				v-30.2c0-16.6,13.6-30.2,30.2-30.2l0,0c16.6,0,30.2,13.6,30.2,30.2v30.2C14314.2,6160.9,14300.6,6174.5,14284,6174.5z"/>
			<path id="path3584" inkscape:connector-curvature="0" class="st5" d="M14707.3,6174.5L14707.3,6174.5
				c-16.6,0-30.2-13.6-30.2-30.2v-30.2c0-16.6,13.6-30.2,30.2-30.2l0,0c16.6,0,30.2,13.6,30.2,30.2v30.2
				C14737.5,6160.9,14723.9,6174.5,14707.3,6174.5z"/>
			<g id="g3588">
				<path id="path3586" inkscape:connector-curvature="0" class="st6" d="M14495.6,6387c-53.8,0-104-13.2-138-36.3
					c-13.8-9.4-17.4-28.2-8-42c9.4-13.8,28.2-17.4,42-8c23.8,16.2,62.6,25.8,103.9,25.8c41.3,0,80.2-9.7,103.9-25.8
					c13.8-9.4,32.6-5.8,42,8c9.4,13.8,5.8,32.6-8,42C14599.7,6373.8,14549.4,6387,14495.6,6387z"/>
			</g>
			<path id="path3590" inkscape:connector-curvature="0" class="st2" d="M14072.3,6083.8c-50.1,0-90.7,40.6-90.7,90.7
				c0,50.1,40.6,90.7,90.7,90.7c0,73.2,44,139.3,111.6,167.5l195.4,81.4c9.6,4,19.3,7.4,29.2,10.4
				c-86.3-63.2-143.8-118.4-177.5-154.5c-24.5-26.3-37.8-60.9-37.8-96.9v-218.9c93.1,2.9,293.8,10.6,464.9-80.8v-116.4h-585.8
				V6083.8z"/>
			<path id="path3592" inkscape:connector-curvature="0" class="st7" d="M14938,6713.2l-65.1-32.6c-11-5.5-23.9,0.8-27.2,12.7
				c-41.9,154.1-182.7,267.3-350.1,267.3c-167.4,0-308.2-113.3-350.1-267.5c-3.2-11.8-16-18.1-27-12.6l-59.4,29.7
				c-50.7,25.3-81.5,68.5-88.1,118.2l-36.2,271.4c-7.3,54.4,35.1,102.7,89.9,102.7h941.8c54.9,0,97.2-48.3,89.9-102.7l-36.2-271.4
				C15013.6,6778.8,14982.8,6735.6,14938,6713.2L14938,6713.2z"/>
			<path id="path3594" inkscape:connector-curvature="0" class="st8" d="M13984.8,6783.5c-6.9,14.1-11.7,29.1-13.8,44.9l-36.2,271.4
				c-7.2,54.4,35.1,102.7,89.9,102.7h138.3v-120.9c0-39.3-12.7-77.4-36.3-108.9L13984.8,6783.5z"/>
			<path id="path3596" inkscape:connector-curvature="0" class="st8" d="M15006.4,6783.5c6.9,14.1,11.7,29.1,13.8,44.9l36.2,271.4
				c7.2,54.4-35.1,102.7-89.9,102.7h-138.3v-120.9c0-39.3,12.7-77.4,36.3-108.9L15006.4,6783.5z"/>
			<path id="path3598" inkscape:connector-curvature="0" class="st0" d="M14061,5845.7v117.2c0,0,126.1,49.1,341.5,30.2l31-120.9
				l31,120.9c85.4-7.6,124.2-30.2,124.2-30.2l31-60.5l31,90.7c0,0,111.3-1.3,186.3-30.2l31-60.5l62.1,151.2v-215.4
				c0,0-128.1-181.4-446.3-181.4C14167,5656.7,14061,5845.7,14061,5845.7L14061,5845.7z"/>
			<path id="path3600" inkscape:connector-curvature="0" class="st1" d="M14387.5,5663c-242.4,32.8-326.6,182.7-326.6,182.7v117.2
				c0,0,79.2,30.6,218.8,34.1C14279.8,5997,14278.5,5797.5,14387.5,5663z"/>
			<g id="g3604">
				<path id="path3602" inkscape:connector-curvature="0" class="st9" d="M14918.1,5872.2c-10,0-19.8-5-25.5-14
					c-63.7-100.1-223.2-167.4-397-167.4c-173.7,0-333.2,67.3-397,167.4c-8.9,14.1-27.7,18.2-41.7,9.3c-14.1-9-18.2-27.7-9.3-41.8
					c75.5-118.7,251.4-195.4,448-195.4c196.6,0,372.4,76.7,448,195.4c9,14.1,4.8,32.8-9.3,41.8
					C14929.3,5870.6,14923.7,5872.2,14918.1,5872.2z"/>
			</g>
			<path id="path3606" inkscape:connector-curvature="0" class="st10" d="M14930.3,6038.5h-313.7c-25,0-45.4,20.3-45.4,45.4v1.6
				c-19.2-19.6-46-31.9-75.6-31.9c-29.6,0-56.4,12.2-75.6,31.9v-1.6c0-25-20.3-45.4-45.4-45.4H14061c-8.3,0-15.1,6.8-15.1,15.1
				s6.8,15.1,15.1,15.1h89.6c-1.7,4.7-2.6,9.8-2.6,15.1v90.7c0,25,20.3,45.4,45.4,45.4h181.4c25,0,45.4-20.3,45.4-45.4v-15.1
				c0-41.7,33.9-75.6,75.6-75.6c41.7,0,75.6,33.9,75.6,75.6v15.1c0,25,20.3,45.4,45.4,45.4h181.4c25,0,45.4-20.3,45.4-45.4v-90.7
				c0-5.3-1-10.4-2.6-15.1h89.6c8.3,0,15.1-6.8,15.1-15.1S14938.6,6038.5,14930.3,6038.5z M14389.8,6174.5c0,8.3-6.8,15.1-15.1,15.1
				h-181.4c-8.3,0-15.1-6.8-15.1-15.1v-90.7c0-8.3,6.8-15.1,15.1-15.1h181.4c8.3,0,15.1,6.8,15.1,15.1V6174.5z M14813.1,6083.8v90.7
				c0,8.3-6.8,15.1-15.1,15.1h-181.4c-8.3,0-15.1-6.8-15.1-15.1v-90.7c0-8.3,6.8-15.1,15.1-15.1h181.4
				C14806.3,6068.7,14813.1,6075.5,14813.1,6083.8z"/>
		</g>
		<g id="g3610">
		</g>
		<g id="g3612">
		</g>
		<g id="g3614">
		</g>
		<g id="g3616">
		</g>
		<g id="g3618">
		</g>
		<g id="g3620">
		</g>
		<g id="g3622">
		</g>
		<g id="g3624">
		</g>
		<g id="g3626">
		</g>
		<g id="g3628">
		</g>
		<g id="g3630">
		</g>
		<g id="g3632">
		</g>
		<g id="g3634">
		</g>
		<g id="g3636">
		</g>
		<g id="g3638">
		</g>
	</g>
	<g id="g3825" transform="matrix(0.26458333,0,0,0.26458333,-2930.5944,533.07416)">
		<g id="g3741">
			<path id="path3683" inkscape:connector-curvature="0" class="st11" d="M10180.8,7047.1l-2.7-24.7c-1.1-9.8-9.9-16.8-19.7-15.7
				l-1.5,0.2l-26.6-212.5c-5.8-46.2-37.6-85-81.8-99.7l-147.6-49.2c-20.3-6.8-42.5-2.5-58.1,10.9l-43.5-14.5
				c-24.7-8.2-41.3-31.3-41.3-57.4V6487l130.2-54.3c67.6-28.2,111.6-94.2,111.6-167.5V6235c50.1,0,90.7-40.6,90.7-90.7
				s-40.6-90.7-90.7-90.7v-120.9c0-83.5-67.7-151.2-151.2-151.2h-544.3c-83.5,0-151.2,67.7-151.2,151.2v120.9
				c-50.1,0-90.7,40.6-90.7,90.7s40.6,90.7,90.7,90.7v30.2c0,73.2,44,139.3,111.6,167.5l130.3,54.3v97.5c0,26-16.7,49.1-41.3,57.4
				l-43.5,14.5c-15.6-13.3-37.9-17.6-58.1-10.9l-147.6,49.2c-44.2,14.7-76,53.5-81.8,99.7l-26.6,212.5l-1.5-0.2
				c-9.8-1.1-18.6,6-19.7,15.7l-2.7,24.7c-1.1,9.8,6,18.6,15.7,19.7l44.2,4.9v70.4c0,33.4,27.1,60.5,60.5,60.5h967.6
				c33.4,0,60.5-27.1,60.5-60.5v-70.4l44.2-4.9C10174.9,7065.7,10181.9,7056.9,10180.8,7047.1L10180.8,7047.1z"/>
			<path id="path3685" inkscape:connector-curvature="0" class="st12" d="M9395.2,6584.5c0,21.5-11.4,41-29.3,51.8
				C9618.9,6680,9758,6487,9758,6487l-362.8,0V6584.5z"/>
			<g id="g3689">
				<path id="path3687" inkscape:connector-curvature="0" class="st13" d="M9160.5,5872.2l-341.6,27.8c-16.3,1.4-28.8,15-28.8,31.3
					v0.1c0,17.4,14.1,31.4,31.4,31.4h338.9V5872.2z"/>
			</g>
			<g id="g3693">
				<path id="path3691" inkscape:connector-curvature="0" class="st14" d="M9909.2,7202.6v-151.2h253.2l-32.1-257
					c-5.8-46.2-37.6-85-81.8-99.7l-147.6-49.2c-25.7-8.6-54.6,0.6-69.1,23.5c-53.6,84.4-147.8,140.5-255.2,140.5
					s-201.6-56.1-255.2-140.6c-14.5-22.9-43.4-32-69.1-23.5l-147.6,49.2c-44.2,14.7-76,53.5-81.8,99.7l-28.8,230.1l249.9,26.9v151.2
					L9909.2,7202.6z"/>
			</g>
			<path id="path3695" inkscape:connector-curvature="0" class="st15" d="M9999.9,6053.6v-120.9c0-83.5-67.7-151.2-151.2-151.2
				h-544.3c-83.5,0-151.2,67.7-151.2,151.2v121c-0.1,0-0.3,0-0.4,0c-50.1,0-90.7,40.6-90.7,90.7s40.6,90.7,90.7,90.7
				c0.1,0,0.3,0,0.4,0v30.2c0,73.2,44,139.3,111.6,167.5l195.4,81.4c36.9,15.4,76.4,23.3,116.3,23.3l0,0c39.9,0,79.4-7.9,116.3-23.3
				l195.4-81.4c67.6-28.2,111.6-94.2,111.6-167.5V6235c50.1,0,90.7-40.6,90.7-90.7C10090.6,6094.2,10050,6053.6,9999.9,6053.6
				L9999.9,6053.6z"/>
			<path id="path3697" inkscape:connector-curvature="0" class="st11" d="M9312,6370c-24.5-26.3-37.8-60.9-37.8-96.9v-336.7h-120.9
				v117.2c-50.1,0-90.7,40.6-90.7,90.7s40.6,90.7,90.7,90.7v30.2c0,73.2,44,139.3,111.6,167.5l195.4,81.4c9.6,4,19.3,7.4,29.2,10.4
				C9403.2,6461.3,9345.7,6406.1,9312,6370z"/>
			<g id="g3701">
				<path id="path3699" inkscape:connector-curvature="0" class="st5" d="M9365,6174.5L9365,6174.5c-16.6,0-30.2-13.6-30.2-30.2
					v-30.2c0-16.6,13.6-30.2,30.2-30.2l0,0c16.6,0,30.2,13.6,30.2,30.2v30.2C9395.2,6160.9,9381.6,6174.5,9365,6174.5z"/>
			</g>
			<g id="g3705">
				<path id="path3703" inkscape:connector-curvature="0" class="st5" d="M9788.3,6174.5L9788.3,6174.5c-16.6,0-30.2-13.6-30.2-30.2
					v-30.2c0-16.6,13.6-30.2,30.2-30.2l0,0c16.6,0,30.2,13.6,30.2,30.2v30.2C9818.5,6160.9,9804.9,6174.5,9788.3,6174.5z"/>
			</g>
			<g id="g3711">
				<g id="g3709">
					<path id="path3707" inkscape:connector-curvature="0" class="st12" d="M9576.6,6387c-53.8,0-104-13.2-138-36.3
						c-13.8-9.4-17.4-28.2-8-42c9.4-13.8,28.2-17.4,42-8c23.8,16.2,62.6,25.8,103.9,25.8s80.2-9.7,103.9-25.8
						c13.8-9.4,32.6-5.8,42,8c9.4,13.8,5.8,32.6-8,42C9680.7,6373.8,9630.4,6387,9576.6,6387z"/>
				</g>
			</g>
			<g id="g3715">
				<path id="path3713" inkscape:connector-curvature="0" class="st16" d="M9244,7074.2v-68.4c0-29.1-10.5-57.2-29.5-79.2
					l-166.4-192c-13.4,17-22.4,37.5-25.2,59.9l-31.6,252.7C9039.4,7050,9167.3,7064.9,9244,7074.2L9244,7074.2z"/>
			</g>
			<g id="g3719">
				<path id="path3717" inkscape:connector-curvature="0" class="st13" d="M9244,7034.4l-249.2-27.7c-9.8-1.1-18.6,6-19.7,15.7
					l-2.7,24.7c-1.1,9.8,6,18.6,15.7,19.7l255.9,28.4L9244,7034.4z"/>
			</g>
			<g id="g3723">
				<path id="path3721" inkscape:connector-curvature="0" class="st16" d="M9909.2,7074.2v-68.4c0-29.1,10.5-57.2,29.5-79.2
					l166.4-192c13.4,17,22.4,37.5,25.2,59.9l31.6,252.7C10113.8,7050,9985.9,7064.9,9909.2,7074.2L9909.2,7074.2z"/>
			</g>
			<g id="g3727">
				<path id="path3725" inkscape:connector-curvature="0" class="st13" d="M9909.2,7034.4l249.2-27.7c9.8-1.1,18.6,6,19.7,15.7
					l2.7,24.7c1.1,9.8-6,18.6-15.7,19.7l-255.9,28.4L9909.2,7034.4L9909.2,7034.4z"/>
			</g>
			<g id="g3731">
				<path id="path3729" inkscape:connector-curvature="0" class="st16" d="M9929.2,5587l-294.6-126.2c-18.3-7.9-38.1-11.9-58-11.9h0
					c-19.9,0-39.7,4.1-58,11.9L9224,5587c-60.2,25.8-96.9,87.4-91,152.6l20.3,223.2h514c16.7,0,30.2-13.5,30.2-30.2v-90.7
					c0-16.7,13.5-30.2,30.2-30.2h181.4c16.7,0,30.2,13.5,30.2,30.2v90.7c0,16.7,13.5,30.2,30.2,30.2h30.2l20.3-223.2
					C10026.2,5674.4,9989.4,5612.8,9929.2,5587z"/>
			</g>
			<g id="g3735">
				<path id="path3733" inkscape:connector-curvature="0" class="st14" d="M9576.6,5448.9L9576.6,5448.9c-20,0-39.7,4.1-58,11.9
					L9224,5587c-60.2,25.8-96.9,87.4-91,152.6l20.3,223.2h241.9v-257.5c0-48.1,19.1-94.3,53.1-128.3L9576.6,5448.9z"/>
			</g>
			<g id="g3739">
				<rect id="rect3737" x="9697.6" y="5872.2" class="st14" width="241.9" height="60.5"/>
			</g>
		</g>
		<g id="g3743">
		</g>
		<g id="g3745">
		</g>
		<g id="g3747">
		</g>
		<g id="g3749">
		</g>
		<g id="g3751">
		</g>
		<g id="g3753">
		</g>
		<g id="g3755">
		</g>
		<g id="g3757">
		</g>
		<g id="g3759">
		</g>
		<g id="g3761">
		</g>
		<g id="g3763">
		</g>
		<g id="g3765">
		</g>
		<g id="g3767">
		</g>
		<g id="g3769">
		</g>
		<g id="g3771">
		</g>
	</g>
	<g id="g3918" transform="matrix(0.26458333,0,0,0.26458333,-3767.4362,535.73792)">
		<g id="g3851">
			<path id="path3827" inkscape:connector-curvature="0" class="st17" d="M1322.7,6746.8c0,0-192.6,145.6-483.8,181.4
				c-240.6,0-294.8,0-294.8,0s-471.8-388-471.8-939.1c0-290.2,264.7-512.3,554.9-512.3h0.2c290.2,0,542,234.6,554.9,512.3
				C1205.6,6489.8,1322.7,6746.8,1322.7,6746.8z"/>
			<path id="path3829" inkscape:connector-curvature="0" class="st18" d="M627.3,5809.5c0-79.6-55.8-277.2-288.6-255.1
				c-156,89.2-266.4,247.6-266.4,434.8c0,551,291.7,891.4,562.6,891.4L627.3,5809.5z"/>
			<path id="path3831" inkscape:connector-curvature="0" class="st2" d="M1188.1,7127.9l-36.2-271.4c-6.6-49.7-37.4-92.8-88.1-118.2
				l-142.3-62.7c-12.4-5.5-26.4-1.9-34.8,7.8l-36.7-13.5c-24.7-8.2-41.3-31.3-41.3-57.4V6515l130.2-54.3
				c67.6-28.2,111.6-94.2,111.6-167.5V6263c50.1,0,90.7-40.6,90.7-90.7c0-50.1-40.6-90.7-90.7-90.7v-60.5
				c0-83.5-67.7-151.2-151.2-151.2H773.3c-54.8,0-107.3-21.8-146-60.5c-38.7,38.7-91.2,60.5-146,60.5H355.2
				c-83.5,0-151.2,67.7-151.2,151.2v60.5c-50.1,0-90.7,40.6-90.7,90.7c0,50.1,40.6,90.7,90.7,90.7v30.2c0,73.2,44,139.3,111.6,167.5
				l130.3,54.3v97.5c0,26-16.7,49.1-41.3,57.4l-36.7,13.5c-8.4-9.7-22.3-13.3-34.8-7.8l-142.3,62.7c-50.7,25.3-81.5,68.5-88.1,118.2
				l-36.2,271.4c-7.3,54.4,35.1,102.7,89.9,102.7h17.3h907.1h17.3C1153.1,7230.6,1195.4,7182.2,1188.1,7127.9L1188.1,7127.9z"/>
			<path id="path3833" inkscape:connector-curvature="0" class="st3" d="M808.7,6515l-362.8-2.5v100c0,21.5-11.4,41-29.3,51.8
				C669.5,6708,808.7,6515,808.7,6515z"/>
			<path id="path3835" inkscape:connector-curvature="0" class="st4" d="M1050.6,6081.6v-60.5c0-83.5-67.7-151.2-151.2-151.2H773.3
				c-54.8,0-107.3-21.8-146-60.5c-38.7,38.7-91.2,60.5-146,60.5H355.2c-83.5,0-151.2,67.7-151.2,151.2v60.5
				c-50.1,0-90.7,40.6-90.7,90.7s40.6,90.7,90.7,90.7v30.2c0,73.2,44,139.3,111.6,167.5l195.4,81.4c36.9,15.4,76.4,23.3,116.3,23.3
				c39.9,0,79.4-7.9,116.3-23.3l195.4-81.4c67.6-28.2,111.6-94.2,111.6-167.5V6263c50.1,0,90.7-40.6,90.7-90.7
				C1141.3,6122.2,1100.7,6081.6,1050.6,6081.6L1050.6,6081.6z"/>
			<path id="path3837" inkscape:connector-curvature="0" class="st5" d="M415.7,6202.5L415.7,6202.5c-16.6,0-30.2-13.6-30.2-30.2
				V6142c0-16.6,13.6-30.2,30.2-30.2l0,0c16.6,0,30.2,13.6,30.2,30.2v30.2C445.9,6188.9,432.3,6202.5,415.7,6202.5z"/>
			<path id="path3839" inkscape:connector-curvature="0" class="st5" d="M839,6202.5L839,6202.5c-16.6,0-30.2-13.6-30.2-30.2V6142
				c0-16.6,13.6-30.2,30.2-30.2l0,0c16.6,0,30.2,13.6,30.2,30.2v30.2C869.2,6188.9,855.6,6202.5,839,6202.5z"/>
			<path id="path3841" inkscape:connector-curvature="0" class="st6" d="M627.3,6415c-53.8,0-104-13.2-138-36.3
				c-13.8-9.4-17.4-28.2-8-42c9.4-13.8,28.2-17.4,42-8c23.8,16.2,62.6,25.8,103.9,25.8s80.2-9.7,103.9-25.8c13.8-9.4,32.6-5.8,42,8
				c9.4,13.8,5.8,32.6-8,42C731.4,6401.8,681.1,6415,627.3,6415z"/>
			<path id="path3843" inkscape:connector-curvature="0" class="st19" d="M1188.1,7127.9l-36.2-271.4
				c-6.6-49.7-37.4-92.8-88.1-118.2l-142.3-62.7c-15.8-6.9-34,0.7-40.2,16.8c-39,102.5-137.9,175.4-254.1,175.4
				s-215.1-72.9-254.1-175.4c-6.1-16.1-24.4-23.7-40.2-16.8l-142.3,62.7c-50.7,25.3-81.5,68.5-88.1,118.2l-36.2,271.4
				c-7.2,54.4,35.1,102.7,89.9,102.7h941.8C1153.1,7230.6,1195.4,7182.2,1188.1,7127.9L1188.1,7127.9z"/>
			<path id="path3845" inkscape:connector-curvature="0" class="st7" d="M974.4,6711.5l-108.8,174.1c-16.6,26.5-45.6,42.6-76.9,42.6
				H465.9c-31.3,0-60.3-16.1-76.9-42.6l-108.8-174.1c-8.7-14-27.1-18.4-41.2-9.9l-99.3,59.6c-14.5,8.7-19,27.6-10.1,42l134.9,215.8
				h725.7l134.9-215.8c9-14.3,4.4-33.2-10.1-42l-99.3-59.6C1001.5,6693.1,983.1,6697.5,974.4,6711.5z"/>
			<rect id="rect3847" x="264.5" y="7018.9" class="st8" width="725.7" height="211.7"/>
			<path id="path3849" inkscape:connector-curvature="0" class="st2" d="M667.7,5840.6c-14.6-8.7-28.2-19-40.4-31.1
				c-38.7,38.7-91.2,60.5-146,60.5H355.2c-10.4,0-20.5,1.1-30.2,3.2v-0.1c-69,14-120.9,75-120.9,148.1v60.5
				c-50.1,0-90.7,40.6-90.7,90.7s40.6,90.7,90.7,90.7v30.2c0,73.2,44,139.3,111.6,167.5l195.4,81.4c9.6,4,19.3,7.4,29.2,10.4
				c-86.3-63.2-143.8-118.4-177.5-154.5c-24.5-26.3-37.8-60.9-37.8-96.9v-369.7C584.1,5939.2,635.2,5890.2,667.7,5840.6
				L667.7,5840.6z"/>
		</g>
		<g id="g3853">
		</g>
		<g id="g3855">
		</g>
		<g id="g3857">
		</g>
		<g id="g3859">
		</g>
		<g id="g3861">
		</g>
		<g id="g3863">
		</g>
		<g id="g3865">
		</g>
		<g id="g3867">
		</g>
		<g id="g3869">
		</g>
		<g id="g3871">
		</g>
		<g id="g3873">
		</g>
		<g id="g3875">
		</g>
		<g id="g3877">
		</g>
		<g id="g3879">
		</g>
		<g id="g3881">
		</g>
	</g>
	<g id="g4392" transform="matrix(0.26458333,0,0,0.26458333,-3393.2377,533.07337)">
		<g id="g4286">
			<g id="g4186">
				<rect id="rect4184" x="4236" y="6371.1" class="st20" width="778.6" height="332.6"/>
			</g>
			<path id="path4188" inkscape:connector-curvature="0" class="st21" d="M5186.1,7099.9l-34.7-260.4c-3.3-24.8-12.7-47.9-26.6-67.5
				c6.5-13.8,1.6-30.6-11.8-38.7l-99.3-59.6c-14.1-8.5-32.5-4.1-41.2,9.9l-2.1,3.3l-122.2-45c-24.7-8.2-41.3-31.3-41.3-57.4V6487
				l130.2-54.3c67.6-28.2,111.6-94.2,111.6-167.5v-272.1c0-83.5-67.7-151.2-151.2-151.2h-544.3c-83.5,0-151.2,67.7-151.2,151.2
				v272.1c0,73.2,44,139.3,111.6,167.5l130.3,54.3v97.5c0,26-16.7,49.1-41.3,57.4l-122.2,45l-2.1-3.3c-8.7-14-27.1-18.4-41.2-9.9
				l-99.3,59.6c-13.4,8.1-18.3,24.9-11.8,38.7c-14,19.7-23.3,42.7-26.6,67.5l-34.7,260.4c-7.2,54.4,35.1,102.7,89.9,102.7h941.8
				C5151,7202.6,5193.4,7154.3,5186.1,7099.9L5186.1,7099.9z"/>
			<g id="g4192">
				<path id="path4190" inkscape:connector-curvature="0" class="st22" d="M4806.7,6487l-362.8-80.6v178.1c0,21.8-12,40.9-30.3,51.6
					C4667.2,6680.5,4806.7,6487,4806.7,6487z"/>
			</g>
			<g id="g4196">
				<path id="path4194" inkscape:connector-curvature="0" class="st3" d="M4937,6432.7l-195.4,81.4c-36.8,15.4-76.4,23.3-116.3,23.3
					l0,0c-39.9,0-79.4-7.9-116.3-23.3l-195.4-81.4c-67.6-28.2-111.6-94.2-111.6-167.5v-272.1c0-83.5,67.7-151.2,151.2-151.2h544.3
					c83.5,0,151.2,67.7,151.2,151.2v272.1C5048.6,6338.5,5004.6,6404.5,4937,6432.7z"/>
			</g>
			<g id="g4200">
				<path id="path4198" inkscape:connector-curvature="0" class="st5" d="M4413.7,6174.5L4413.7,6174.5c-16.6,0-30.2-13.6-30.2-30.2
					v-30.2c0-16.6,13.6-30.2,30.2-30.2l0,0c16.6,0,30.2,13.6,30.2,30.2v30.2C4443.9,6160.9,4430.3,6174.5,4413.7,6174.5z"/>
			</g>
			<g id="g4204">
				<path id="path4202" inkscape:connector-curvature="0" class="st5" d="M4837,6174.5L4837,6174.5c-16.6,0-30.2-13.6-30.2-30.2
					v-30.2c0-16.6,13.6-30.2,30.2-30.2l0,0c16.6,0,30.2,13.6,30.2,30.2v30.2C4867.2,6160.9,4853.6,6174.5,4837,6174.5z"/>
			</g>
			<g id="g4210">
				<g id="g4208">
					<path id="path4206" inkscape:connector-curvature="0" class="st22" d="M4625.3,6387c-53.8,0-104-13.2-138-36.3
						c-13.8-9.4-17.4-28.2-8-42c9.4-13.8,28.2-17.4,42-8c23.8,16.2,62.6,25.8,103.9,25.8c41.3,0,80.2-9.7,103.9-25.8
						c13.8-9.4,32.6-5.8,42,8c9.4,13.8,5.8,32.6-8,42C4729.3,6373.8,4679.1,6387,4625.3,6387L4625.3,6387z"/>
				</g>
			</g>
			<g id="g4214">
				<path id="path4212" inkscape:connector-curvature="0" class="st21" d="M4509,6514.1c9.6,4,19.3,7.4,29.2,10.4
					c-86.3-63.2-143.8-118.4-177.5-154.5c-24.5-26.3-37.8-60.9-37.8-96.9V5845c-69,14-120.9,75-120.9,148.1v272.1
					c0,73.2,44,139.3,111.6,167.5L4509,6514.1z"/>
			</g>
			<g id="g4218">
				<path id="path4216" inkscape:connector-curvature="0" class="st9" d="M4972.4,6683.5l-108.8,174.1
					c-16.6,26.5-45.6,42.6-76.9,42.6h-322.8c-31.3,0-60.3-16.1-76.9-42.6l-108.8-174.1c-8.7-14-27.1-18.4-41.2-9.9l-99.3,59.6
					c-14.5,8.7-19,27.6-10.1,42l134.9,215.8h725.7l134.9-215.8c9-14.3,4.4-33.2-10.1-42l-99.3-59.6
					C4999.5,6665.1,4981.1,6669.5,4972.4,6683.5L4972.4,6683.5z"/>
			</g>
			<g id="g4222">
				<rect id="rect4220" x="4262.5" y="6990.9" class="st23" width="725.7" height="211.7"/>
			</g>
			<g id="g4226">
				<path id="path4224" inkscape:connector-curvature="0" class="st24" d="M5118.1,5877.1c-54.4-269.5-244.7-428.3-492.8-428.3
					s-438.4,158.7-492.8,428.3c-57.1,282.8-81.7,707.1-81.7,1083.5l211.7,60.5c0-296.6,20.6-825,27.8-999.9
					c186.1-7.4,576.9-37.7,667.6-149c0,0,30.2,789.9,30.2,1149l211.7-60.5C5199.8,6584.3,5175.2,6160,5118.1,5877.1z"/>
			</g>
			<g id="g4232">
				<g id="g4230">
					<path id="path4228" inkscape:connector-curvature="0" class="st20" d="M4465.1,5877.1c41.4-205.3,161.9-346.1,326.5-401.6
						c-51.5-17.4-107.2-26.7-166.3-26.7c-248.1,0-438.4,158.7-492.8,428.3c-57.1,282.8-81.7,707.1-81.7,1083.5l211.7,60.5
						c0-296.6,20.6-825,27.8-999.9c42-1.7,94.5-4.5,151.7-9.2C4449,5964.5,4456.6,5919.1,4465.1,5877.1z"/>
				</g>
			</g>
			<g id="g4236">
				<path id="path4234" inkscape:connector-curvature="0" class="st9" d="M5109.4,5902.4h-968.1c-15.2,0-26.4-14.3-22.7-29.1
					l18.5-74.2c2.6-10.4,12-17.7,22.7-17.7h931c10.7,0,20.1,7.3,22.7,17.7l18.5,74.2C5135.7,5888.1,5124.6,5902.4,5109.4,5902.4z"/>
			</g>
			<g id="g4240">
				<path id="path4238" inkscape:connector-curvature="0" class="st25" d="M4336.8,5873.3l18.5-74.2c2.6-10.4,12-17.7,22.7-17.7
					h-218.2c-10.7,0-20.1,7.3-22.7,17.7l-18.5,74.2c-3.7,14.8,7.5,29.1,22.7,29.1h218.2C4344.2,5902.4,4333.1,5888.1,4336.8,5873.3
					L4336.8,5873.3z"/>
			</g>
			<g id="g4284">
				<g id="g4246">
					<g id="g4244">
						<path id="path4242" inkscape:connector-curvature="0" class="st25" d="M4973,5840.6c0,40.7-82.1,73.7-122.8,73.7
							s-73.7-33-73.7-73.7s33-73.7,73.7-73.7S4973,5799.9,4973,5840.6z"/>
					</g>
				</g>
				<g id="g4252">
					<g id="g4250">
						<path id="path4248" inkscape:connector-curvature="0" class="st25" d="M4973,5840.6c0-40.7,82.1-73.7,122.8-73.7
							s73.7,33,73.7,73.7s-33,73.7-73.7,73.7C5055.2,5914.3,4973,5881.3,4973,5840.6z"/>
					</g>
				</g>
				<g id="g4258">
					<g id="g4256">
						<path id="path4254" inkscape:connector-curvature="0" class="st23" d="M4973,5840.6c35.3,20.4,22.8,108,2.4,143.2
							c-20.4,35.3-65.4,47.3-100.7,27c-35.3-20.4-47.3-65.4-27-100.7C4868.1,5874.9,4937.8,5820.3,4973,5840.6z"/>
					</g>
				</g>
				<g id="g4264">
					<g id="g4262">
						<path id="path4260" inkscape:connector-curvature="0" class="st23" d="M4973,5840.6c-35.3-20.4-22.8-108-2.4-143.2
							c20.4-35.3,65.4-47.3,100.7-27s47.3,65.4,27,100.7C5077.9,5806.3,5008.3,5861,4973,5840.6z"/>
					</g>
				</g>
				<g id="g4270">
					<g id="g4268">
						<path id="path4266" inkscape:connector-curvature="0" class="st9" d="M4973,5840.6c-35.3,20.4-22.8,108-2.4,143.2
							s65.4,47.3,100.7,27c35.3-20.3,47.3-65.4,27-100.7C5077.9,5874.9,5008.3,5820.3,4973,5840.6z"/>
					</g>
				</g>
				<g id="g4276">
					<g id="g4274">
						<path id="path4272" inkscape:connector-curvature="0" class="st9" d="M4973,5840.6c35.3-20.4,22.8-108,2.4-143.2
							c-20.4-35.3-65.4-47.3-100.7-27c-35.3,20.4-47.3,65.4-27,100.7C4868.1,5806.3,4937.8,5861,4973,5840.6z"/>
					</g>
				</g>
				<g id="g4282">
					<g id="g4280">
						<circle id="circle4278" class="st26" cx="4973" cy="5840.6" r="49.1"/>
					</g>
				</g>
			</g>
		</g>
		<g id="g4288">
		</g>
		<g id="g4290">
		</g>
		<g id="g4292">
		</g>
		<g id="g4294">
		</g>
		<g id="g4296">
		</g>
		<g id="g4298">
		</g>
		<g id="g4300">
		</g>
		<g id="g4302">
		</g>
		<g id="g4304">
		</g>
		<g id="g4306">
		</g>
		<g id="g4308">
		</g>
		<g id="g4310">
		</g>
		<g id="g4312">
		</g>
		<g id="g4314">
		</g>
		<g id="g4316">
		</g>
	</g>
	<g id="g4530" transform="matrix(0.26458333,0,0,0.26458333,-2078.7378,533.07443)">
		<g id="g4448">
			<path id="path4394" inkscape:connector-curvature="0" class="st21" d="M19038.7,7047.2l-2.7-24.7c-1.1-9.8-9.9-16.8-19.7-15.7
				l-1.5,0.2l-26.6-212.5c-5.8-46.2-37.6-85-81.8-99.7l-169.8-56.6c-14.5-4.8-30.4,1.9-36.9,15.7c-0.3,0.6-0.6,1.3-0.9,1.9
				l-41.7-13.9c-24.7-8.2-41.3-31.3-41.3-57.4V6487l130.2-54.3c67.6-28.2,111.6-94.2,111.6-167.5V6235c50.1,0,90.7-40.6,90.7-90.7
				c0-20.8-7-40-18.9-55.3c18.2-90,51.3-265.4,49-337.7c-1.5-48.4-32.2-113.1-120.9-151.2c-158.7-68-357.6-88.2-423.2-151.1v-0.1
				c0,0,0,0-0.1,0c0,0,0,0-0.1,0v0.1c-65.6,62.9-264.5,83.1-423.2,151.1c-88.8,38-119.4,102.8-120.9,151.2
				c-2.3,72.4,30.8,247.9,49,337.9c-11.8,15.3-18.8,34.4-18.8,55.2c0,50.1,40.6,90.7,90.7,90.7v30.2c0,73.2,44,139.3,111.6,167.5
				l130.3,54.3v97.5c0,26-16.7,49.1-41.3,57.4l-41.7,13.9c-0.3-0.6-0.6-1.3-0.9-1.9c-6.4-13.9-22.3-20.6-36.9-15.7l-169.8,56.6
				c-44.2,14.7-76,53.5-81.8,99.7l-26.6,212.5l-1.5-0.2c-9.8-1.1-18.6,6-19.7,15.7l-2.7,24.7c-1.1,9.8,6,18.6,15.7,19.7l44.2,4.9
				v70.4c0,33.4,27.1,60.5,60.5,60.5h151.2h665.2h151.2c33.4,0,60.5-27.1,60.5-60.5v-70.4l44.2-4.9
				C19032.8,7065.7,19039.8,7056.9,19038.7,7047.2L19038.7,7047.2z"/>
			<g id="g4398">
				<path id="path4396" inkscape:connector-curvature="0" class="st22" d="M18253.1,6484.5v100c0,21.5-11.4,41-29.3,51.8
					c252.9,43.7,392.1-151.8,392.1-151.8L18253.1,6484.5z"/>
			</g>
			<g id="g4402">
				<path id="path4400" inkscape:connector-curvature="0" class="st0" d="M18978.7,5751.2c-1.5-48.4-32.2-113.1-120.9-151.2
					c-158.7-68-357.6-88.2-423.2-151.1v-0.1c0,0,0,0-0.1,0c0,0,0,0-0.1,0v0.1c-65.6,62.9-264.5,83.1-423.2,151.1
					c-88.8,38-119.4,102.8-120.9,151.2c-3.2,99.4,60.5,393.1,60.5,393.1h967.4C18918.2,6144.3,18981.8,5850.6,18978.7,5751.2z"/>
			</g>
			<g id="g4406">
				<path id="path4404" inkscape:connector-curvature="0" class="st1" d="M18434.4,5448.9L18434.4,5448.9
					c-65.6,63-264.5,83.2-423.2,151.2c-88.8,38-119.4,102.8-120.9,151.2c-3.2,99.4,60.5,393.1,60.5,393.1h272.1c0,0,0-177.1,0-272.1
					c0-201.6,211.7-297.3,211.7-423.3C18434.5,5448.9,18434.5,5448.9,18434.4,5448.9C18434.5,5448.9,18434.4,5448.9,18434.4,5448.9z
					"/>
			</g>
			<g id="g4410">
				<path id="path4408" inkscape:connector-curvature="0" class="st27" d="M18988.2,6794.4c-5.8-46.2-37.6-85-81.8-99.7l-169.8-56.6
					c-14.5-4.8-30.4,1.9-36.9,15.7c-42,90.5-101.3,189-265.3,306.8c-164.1-117.8-223.4-216.3-265.3-306.8
					c-6.4-13.9-22.3-20.6-36.9-15.7l-169.8,56.6c-44.2,14.7-76,53.5-81.8,99.7l-28.8,230.1l249.9,26.9v151.2h665.2v-151.2
					l249.9-26.9L18988.2,6794.4z"/>
			</g>
			<path id="path4412" inkscape:connector-curvature="0" class="st3" d="M18857.8,6053.6v-60.5c0-83.5-67.7-151.2-151.2-151.2
				h-544.3c-83.5,0-151.2,67.7-151.2,151.2v60.5c-50.1,0-90.7,40.6-90.7,90.7c0,50.1,40.6,90.7,90.7,90.7v30.2
				c0,73.2,44,139.3,111.6,167.5l195.4,81.4c36.8,15.4,76.4,23.3,116.3,23.3l0,0c39.9,0,79.4-7.9,116.3-23.3l195.4-81.4
				c67.6-28.2,111.6-94.2,111.6-167.5V6235c50.1,0,90.7-40.6,90.7-90.7S18907.9,6053.6,18857.8,6053.6L18857.8,6053.6z"/>
			<g id="g4416">
				<path id="path4414" inkscape:connector-curvature="0" class="st5" d="M18222.9,6174.5L18222.9,6174.5
					c-16.6,0-30.2-13.6-30.2-30.2v-30.2c0-16.6,13.6-30.2,30.2-30.2l0,0c16.6,0,30.2,13.6,30.2,30.2v30.2
					C18253.1,6160.9,18239.5,6174.5,18222.9,6174.5z"/>
			</g>
			<g id="g4420">
				<path id="path4418" inkscape:connector-curvature="0" class="st5" d="M18646.2,6174.5L18646.2,6174.5
					c-16.6,0-30.2-13.6-30.2-30.2v-30.2c0-16.6,13.6-30.2,30.2-30.2l0,0c16.6,0,30.2,13.6,30.2,30.2v30.2
					C18676.4,6160.9,18662.8,6174.5,18646.2,6174.5z"/>
			</g>
			<g id="g4426">
				<g id="g4424">
					<path id="path4422" inkscape:connector-curvature="0" class="st22" d="M18434.5,6387c-53.8,0-104-13.2-138-36.3
						c-13.8-9.4-17.4-28.2-8-42c9.4-13.8,28.2-17.4,42-8c23.8,16.2,62.6,25.8,103.9,25.8s80.2-9.7,103.9-25.8
						c13.8-9.4,32.6-5.8,42,8c9.4,13.8,5.8,32.6-8,42C18538.6,6373.8,18488.3,6387,18434.5,6387z"/>
				</g>
			</g>
			<path id="path4428" inkscape:connector-curvature="0" class="st21" d="M18170,6370c-24.5-26.3-37.8-60.9-37.8-96.9V5845
				c-69,14-120.9,75-120.9,148.1v60.5c-50.1,0-90.7,40.6-90.7,90.7c0,50.1,40.6,90.7,90.7,90.7v30.2c0,73.2,44,139.3,111.6,167.5
				l195.4,81.4c9.6,4,19.3,7.4,29.2,10.4C18261.1,6461.3,18203.6,6406.1,18170,6370L18170,6370z"/>
			<g id="g4432">
				<path id="path4430" inkscape:connector-curvature="0" class="st28" d="M18101.9,7074.2v-68.4c0-29.1-10.5-57.2-29.5-79.2
					l-166.4-192c-13.4,17-22.4,37.5-25.2,59.9l-31.6,252.7C17897.3,7050,18025.3,7064.9,18101.9,7074.2L18101.9,7074.2z"/>
			</g>
			<g id="g4436">
				<path id="path4434" inkscape:connector-curvature="0" class="st27" d="M18101.9,7034.4l-249.2-27.7c-9.8-1.1-18.6,6-19.7,15.7
					l-2.7,24.7c-1.1,9.8,6,18.6,15.7,19.7l255.9,28.4V7034.4z"/>
			</g>
			<g id="g4440">
				<path id="path4438" inkscape:connector-curvature="0" class="st28" d="M18767.1,7074.2v-68.4c0-29.1,10.5-57.2,29.5-79.2
					l166.4-192c13.4,17,22.4,37.5,25.2,59.9l31.6,252.7C18971.7,7050,18843.8,7064.9,18767.1,7074.2L18767.1,7074.2z"/>
			</g>
			<g id="g4444">
				<path id="path4442" inkscape:connector-curvature="0" class="st27" d="M18767.1,7034.4l249.2-27.7c9.8-1.1,18.6,6,19.7,15.7
					l2.7,24.7c1.1,9.8-6,18.6-15.7,19.7l-255.9,28.4V7034.4z"/>
			</g>
			<path id="path4446" inkscape:connector-curvature="0" class="st0" d="M18577.9,5826.8c42.4,30,135.1,102.5,189.3,196.5
				c0,0,1.3-105.6-55.6-196.5C18711.6,5826.8,18577.9,5826.8,18577.9,5826.8z"/>
		</g>
		<g id="g4450">
		</g>
		<g id="g4452">
		</g>
		<g id="g4454">
		</g>
		<g id="g4456">
		</g>
		<g id="g4458">
		</g>
		<g id="g4460">
		</g>
		<g id="g4462">
		</g>
		<g id="g4464">
		</g>
		<g id="g4466">
		</g>
		<g id="g4468">
		</g>
		<g id="g4470">
		</g>
		<g id="g4472">
		</g>
		<g id="g4474">
		</g>
		<g id="g4476">
		</g>
		<g id="g4478">
		</g>
	</g>
	
		<path id="path4671" inkscape:connection-end="#g3918" inkscape:connection-start="#g2433" inkscape:connector-curvature="0" inkscape:connector-type="polyline" class="st29" d="
		M-989.5,940.6l-2463.1,1211.7"/>
	<path id="path4679" inkscape:connector-curvature="0" inkscape:connector-type="polyline" class="st29" d="M-396.2,1299.5
		l-3.5,681.6"/>
	
		<path id="path4681" inkscape:connection-end="#g3681" inkscape:connection-start="#g2433" inkscape:connector-curvature="0" inkscape:connector-type="polyline" class="st29" d="
		M73.4,1077l1157.9,1000"/>
	
		<path id="path4683" inkscape:connection-end="#g4530" inkscape:connection-start="#g2433" inkscape:connector-curvature="0" inkscape:connector-type="polyline" class="st29" d="
		M165.8,936.2l2501.7,1207.2"/>
	
		<path id="path4685" inkscape:connection-end="#g4392" inkscape:connection-start="#g2433" inkscape:connector-curvature="0" inkscape:connector-type="polyline" class="st29" d="
		M-894.7,1082.1l-1130.8,997.6"/>
	<g id="g3233" transform="matrix(3.3402228,0,0,3.3402228,-893.86242,71.019839)">
		<polygon id="polygon3219" class="st30" points="206.1,31.2 146.3,-3.4 84.1,35.1 144.7,68.5 		"/>
		<path id="path3221" inkscape:connector-curvature="0" class="st30" d="M234.7,46.1L173,83.4l69.9,40.5v106.3l-94.2,53.1l-93.3-53
			v-82.4l-62.5-31.8v150.8L146.3,357l159-90.2V86.7L234.7,46.1z"/>
	</g>
	<g id="g3233_1_" transform="matrix(3.3402228,0,0,3.3402228,-893.86242,71.019839)">
		<polygon id="polygon3219_1_" class="st30" points="159.4,470 148.6,463.8 137.4,470.7 148.3,476.7 		"/>
		<path id="path3221_1_" inkscape:connector-curvature="0" class="st30" d="M164.5,472.7l-11.1,6.7l12.6,7.3v19.1l-16.9,9.6
			l-16.8-9.5V491l-11.2-5.7v27.1l27.6,16.2l28.6-16.2V480L164.5,472.7z"/>
	</g>
	<g id="g3233_2_" transform="matrix(3.3402228,0,0,3.3402228,-893.86242,71.019839)">
		<polygon id="polygon3219_2_" class="st30" points="-198.9,458.4 -209.6,452.2 -220.8,459.1 -209.9,465.1 		"/>
		<path id="path3221_2_" inkscape:connector-curvature="0" class="st30" d="M-193.7,461l-11.1,6.7l12.6,7.3v19.1l-16.9,9.6
			l-16.8-9.5v-14.8l-11.2-5.7v27.1l27.6,16.2l28.6-16.2v-32.4L-193.7,461z"/>
	</g>
	<g id="g3233_3_" transform="matrix(3.3402228,0,0,3.3402228,-893.86242,71.019839)">
		<polygon id="polygon3219_3_" class="st30" points="520.5,466.3 509.8,460 498.6,467 509.5,473 		"/>
		<path id="path3221_3_" inkscape:connector-curvature="0" class="st30" d="M525.7,468.9l-11.1,6.7l12.6,7.3V502l-16.9,9.6
			l-16.8-9.5v-14.8l-11.2-5.7v27.1l27.6,16.2l28.6-16.2v-32.4L525.7,468.9z"/>
	</g>
	<g id="g3233_4_" transform="matrix(3.3402228,0,0,3.3402228,-893.86242,71.019839)">
		<polygon id="polygon3219_4_" class="st30" points="773,446.8 762.2,440.6 751,447.5 761.9,453.5 		"/>
		<path id="path3221_4_" inkscape:connector-curvature="0" class="st30" d="M778.1,449.5l-11.1,6.7l12.6,7.3v19.1l-16.9,9.6
			l-16.8-9.5v-14.8l-11.2-5.7v27.1l27.6,16.2l28.6-16.2v-32.4L778.1,449.5z"/>
	</g>
	<g id="g3233_5_" transform="matrix(3.3402228,0,0,3.3402228,-893.86242,71.019839)">
		<polygon id="polygon3219_5_" class="st30" points="-468,453.9 -478.7,447.7 -489.9,454.6 -479,460.6 		"/>
		<path id="path3221_5_" inkscape:connector-curvature="0" class="st30" d="M-462.8,456.6l-11.1,6.7l12.6,7.3v19.1l-16.9,9.6
			l-16.8-9.5v-14.8l-11.2-5.7v27.1l27.6,16.2l28.6-16.2v-32.4L-462.8,456.6z"/>
	</g>
</g>
</svg>
